<svg width="56" height="56" viewBox="0 0 56 56" fill="none" xmlns="http://www.w3.org/2000/svg">
<path d="M51.5 27.5C51.5 40.7548 40.7548 51.5 27.5 51.5C14.2452 51.5 3.5 40.7548 3.5 27.5C3.5 14.2452 14.2452 3.5 27.5 3.5C40.7548 3.5 51.5 14.2452 51.5 27.5Z" fill="white"/>
<path fill-rule="evenodd" clip-rule="evenodd" d="M27.5 4C14.5213 4 4 14.5213 4 27.5C4 40.4787 14.5213 51 27.5 51C40.4787 51 51 40.4787 51 27.5C51 14.5213 40.4787 4 27.5 4ZM3 27.5C3 13.969 13.969 3 27.5 3C41.031 3 52 13.969 52 27.5C52 41.031 41.031 52 27.5 52C13.969 52 3 41.031 3 27.5Z" fill="#1F204B"/>
<path d="M30.5 27.5C30.5 29.1569 29.1569 30.5 27.5 30.5C25.8431 30.5 24.5 29.1569 24.5 27.5C24.5 25.8431 25.8431 24.5 27.5 24.5C29.1569 24.5 30.5 25.8431 30.5 27.5Z" fill="#FFC54D"/>
<path fill-rule="evenodd" clip-rule="evenodd" d="M27.5 25C26.1193 25 25 26.1193 25 27.5C25 28.8807 26.1193 30 27.5 30C28.8807 30 30 28.8807 30 27.5C30 26.1193 28.8807 25 27.5 25ZM24 27.5C24 25.567 25.567 24 27.5 24C29.433 24 31 25.567 31 27.5C31 29.433 29.433 31 27.5 31C25.567 31 24 29.433 24 27.5Z" fill="#1F204B"/>
<path fill-rule="evenodd" clip-rule="evenodd" d="M27.1637 27.87C26.9593 27.6842 26.9443 27.368 27.13 27.1637L37.13 16.1637C37.3158 15.9593 37.632 15.9443 37.8363 16.13C38.0407 16.3158 38.0557 16.632 37.87 16.8363L27.87 27.8363C27.6842 28.0407 27.368 28.0557 27.1637 27.87Z" fill="#1F204B"/>
<path d="M23.5 34.5C23.5 33.9477 23.9477 33.5 24.5 33.5H30.5C31.0523 33.5 31.5 33.9477 31.5 34.5V36.5C31.5 37.0523 31.0523 37.5 30.5 37.5H24.5C23.9477 37.5 23.5 37.0523 23.5 36.5V34.5Z" fill="#53CDE4"/>
<path fill-rule="evenodd" clip-rule="evenodd" d="M23 34.5C23 33.6716 23.6716 33 24.5 33H30.5C31.3284 33 32 33.6716 32 34.5V36.5C32 37.3284 31.3284 38 30.5 38H24.5C23.6716 38 23 37.3284 23 36.5V34.5ZM24.5 34C24.2239 34 24 34.2239 24 34.5V36.5C24 36.7761 24.2239 37 24.5 37H30.5C30.7761 37 31 36.7761 31 36.5V34.5C31 34.2239 30.7761 34 30.5 34H24.5Z" fill="#1F204B"/>
<path fill-rule="evenodd" clip-rule="evenodd" d="M16.2027 15.8327C9.75903 22.2764 9.75903 32.7236 16.2027 39.1673C17.179 40.1436 17.179 41.7265 16.2027 42.7028C15.2264 43.6791 13.6435 43.6791 12.6672 42.7028C4.27088 34.3065 4.27088 20.6935 12.6672 12.2972C21.0634 3.90093 34.6765 3.90093 43.0727 12.2972C51.469 20.6935 51.469 34.3065 43.0727 42.7028C42.0964 43.6791 40.5135 43.6791 39.5372 42.7028C38.5609 41.7265 38.5609 40.1436 39.5372 39.1673C45.9809 32.7236 45.9809 22.2764 39.5372 15.8327C33.0936 9.38909 22.6463 9.38909 16.2027 15.8327Z" fill="#DC189C"/>
<path fill-rule="evenodd" clip-rule="evenodd" d="M52 27.5C52 27.7761 51.7761 28 51.5 28L47.5 28C47.2239 28 47 27.7761 47 27.5C47 27.2239 47.2239 27 47.5 27L51.5 27C51.7761 27 52 27.2239 52 27.5ZM8 27.5C8 27.7761 7.77614 28 7.5 28L3.5 28C3.22386 28 3 27.7761 3 27.5C3 27.2239 3.22386 27 3.5 27L7.5 27C7.77614 27 8 27.2239 8 27.5Z" fill="#1F204B"/>
<path fill-rule="evenodd" clip-rule="evenodd" d="M44.824 10.1759C45.0193 10.3712 45.0193 10.6878 44.824 10.883L41.9956 13.7115C41.8003 13.9067 41.4837 13.9067 41.2885 13.7115C41.0932 13.5162 41.0932 13.1996 41.2885 13.0044L44.1169 10.1759C44.3122 9.98068 44.6288 9.98068 44.824 10.1759Z" fill="#1F204B"/>
<path fill-rule="evenodd" clip-rule="evenodd" d="M10.1758 10.1759C10.3711 9.9806 10.6877 9.9806 10.8829 10.1759L13.7114 13.0043C13.9066 13.1996 13.9066 13.5161 13.7114 13.7114C13.5161 13.9067 13.1995 13.9067 13.0042 13.7114L10.1758 10.883C9.98056 10.6877 9.98056 10.3711 10.1758 10.1759Z" fill="#1F204B"/>
<path fill-rule="evenodd" clip-rule="evenodd" d="M27.5 3C27.7761 3 28 3.22386 28 3.5V7.5C28 7.77614 27.7761 8 27.5 8C27.2239 8 27 7.77614 27 7.5V3.5C27 3.22386 27.2239 3 27.5 3Z" fill="#1F204B"/>
</svg>
