<svg width="56" height="56" viewBox="0 0 56 56" fill="none" xmlns="http://www.w3.org/2000/svg">
<path fill-rule="evenodd" clip-rule="evenodd" d="M2.5 44.5C2.5 45.6046 3.39543 46.5 4.5 46.5H51.5C52.6046 46.5 53.5 45.6046 53.5 44.5V11.5C53.5 10.3954 52.6046 9.5 51.5 9.5H4.5C3.39543 9.5 2.5 10.3954 2.5 11.5V44.5Z" fill="white"/>
<path fill-rule="evenodd" clip-rule="evenodd" d="M2 11.5C2 10.1193 3.11929 9 4.5 9H51.5C52.8807 9 54 10.1193 54 11.5V44.5C54 45.8807 52.8807 47 51.5 47H4.5C3.11929 47 2 45.8807 2 44.5V11.5ZM4.5 10C3.67157 10 3 10.6716 3 11.5V44.5C3 45.3284 3.67157 46 4.5 46H51.5C52.3284 46 53 45.3284 53 44.5V11.5C53 10.6716 52.3284 10 51.5 10H4.5Z" fill="#1F204B"/>
<path fill-rule="evenodd" clip-rule="evenodd" d="M5 15H6V16H5V15ZM9 16H8V15H9V16ZM12 16H11V15H12V16ZM15 16H14V15H15V16ZM18 16H17V15H18V16ZM21 16H20V15H21V16ZM24 16H23V15H24V16ZM27 16H26V15H27V16ZM30 16H29V15H30V16ZM33 16H32V15H33V16ZM36 16H35V15H36V16ZM39 16H38V15H39V16ZM42 16H41V15H42V16ZM45 16H44V15H45V16ZM48 16H47V15H48V16ZM50 16V15H51V16H50ZM5 23H6V24H5V23ZM9 24H8V23H9V24ZM12 24H11V23H12V24ZM15 24H14V23H15V24ZM18 24H17V23H18V24ZM21 24H20V23H21V24ZM24 24H23V23H24V24ZM27 24H26V23H27V24ZM30 24H29V23H30V24ZM33 24H32V23H33V24ZM36 24H35V23H36V24ZM39 24H38V23H39V24ZM42 24H41V23H42V24ZM45 24H44V23H45V24ZM48 24H47V23H48V24ZM50 24V23H51V24H50ZM5 31H6V32H5V31ZM9 32H8V31H9V32ZM12 32H11V31H12V32ZM15 32H14V31H15V32ZM18 32H17V31H18V32ZM21 32H20V31H21V32ZM24 32H23V31H24V32ZM27 32H26V31H27V32ZM30 32H29V31H30V32ZM33 32H32V31H33V32ZM36 32H35V31H36V32ZM39 32H38V31H39V32ZM42 32H41V31H42V32ZM45 32H44V31H45V32ZM48 32H47V31H48V32ZM50 32V31H51V32H50ZM5 39H6V40H5V39ZM9 40H8V39H9V40ZM12 40H11V39H12V40ZM15 40H14V39H15V40ZM18 40H17V39H18V40ZM21 40H20V39H21V40ZM24 40H23V39H24V40ZM27 40H26V39H27V40ZM30 40H29V39H30V40ZM33 40H32V39H33V40ZM36 40H35V39H36V40ZM39 40H38V39H39V40ZM42 40H41V39H42V40ZM45 40H44V39H45V40ZM48 40H47V39H48V40ZM50 40V39H51V40H50Z" fill="#FFC54D"/>
<path d="M21.5 31.5C21.5 30.9477 21.9477 30.5 22.5 30.5H32.5C33.0523 30.5 33.5 30.9477 33.5 31.5V46.5H21.5V31.5Z" fill="white"/>
<path fill-rule="evenodd" clip-rule="evenodd" d="M21 31.5C21 30.6716 21.6716 30 22.5 30H32.5C33.3284 30 34 30.6716 34 31.5V46.5C34 46.7761 33.7761 47 33.5 47H21.5C21.2239 47 21 46.7761 21 46.5V31.5ZM22.5 31C22.2239 31 22 31.2239 22 31.5V46H33V31.5C33 31.2239 32.7761 31 32.5 31H22.5Z" fill="#1F204B"/>
<path d="M5.5 23.5C5.5 22.9477 5.94772 22.5 6.5 22.5H16.5C17.0523 22.5 17.5 22.9477 17.5 23.5V46.5H5.5V23.5Z" fill="#53CDE4"/>
<path d="M37.5 38.5C37.5 37.9477 37.9477 37.5 38.5 37.5H48.5C49.0523 37.5 49.5 37.9477 49.5 38.5V46.5H37.5V38.5Z" fill="#53CDE4"/>
<path fill-rule="evenodd" clip-rule="evenodd" d="M5 23.5C5 22.6716 5.67157 22 6.5 22H16.5C17.3284 22 18 22.6716 18 23.5V46.5C18 46.7761 17.7761 47 17.5 47H5.5C5.22386 47 5 46.7761 5 46.5V23.5ZM6.5 23C6.22386 23 6 23.2239 6 23.5V46H17V23.5C17 23.2239 16.7761 23 16.5 23H6.5ZM37 38.5C37 37.6716 37.6716 37 38.5 37H48.5C49.3284 37 50 37.6716 50 38.5V46.5C50 46.7761 49.7761 47 49.5 47H37.5C37.2239 47 37 46.7761 37 46.5V38.5ZM38.5 38C38.2239 38 38 38.2239 38 38.5V46H49V38.5C49 38.2239 48.7761 38 48.5 38H38.5Z" fill="#1F204B"/>
<path d="M23 33C23 32.4477 23.4477 32 24 32H34C34.5523 32 35 32.4477 35 33V46H23V33Z" fill="#DC189C"/>
<path fill-rule="evenodd" clip-rule="evenodd" d="M21 31.5C21 30.6716 21.6716 30 22.5 30H32.5C33.3284 30 34 30.6716 34 31.5V46.5C34 46.7761 33.7761 47 33.5 47H21.5C21.2239 47 21 46.7761 21 46.5V31.5ZM22.5 31C22.2239 31 22 31.2239 22 31.5V46H33V31.5C33 31.2239 32.7761 31 32.5 31H22.5Z" fill="#1F204B"/>
</svg>
