<svg width="56" height="56" viewBox="0 0 56 56" fill="none" xmlns="http://www.w3.org/2000/svg">
<path fill-rule="evenodd" clip-rule="evenodd" d="M2.5 44.5C2.5 45.6046 3.39543 46.5 4.5 46.5H51.5C52.6046 46.5 53.5 45.6046 53.5 44.5V11.5C53.5 10.3954 52.6046 9.5 51.5 9.5H4.5C3.39543 9.5 2.5 10.3954 2.5 11.5V44.5Z" fill="white"/>
<path fill-rule="evenodd" clip-rule="evenodd" d="M2 11.5C2 10.1193 3.11929 9 4.5 9H51.5C52.8807 9 54 10.1193 54 11.5V44.5C54 45.8807 52.8807 47 51.5 47H4.5C3.11929 47 2 45.8807 2 44.5V11.5ZM4.5 10C3.67157 10 3 10.6716 3 11.5V44.5C3 45.3284 3.67157 46 4.5 46H51.5C52.3284 46 53 45.3284 53 44.5V11.5C53 10.6716 52.3284 10 51.5 10H4.5Z" fill="#1F204B"/>
<path fill-rule="evenodd" clip-rule="evenodd" d="M5 15H6V16H5V15ZM9 16H8V15H9V16ZM12 16H11V15H12V16ZM15 16H14V15H15V16ZM18 16H17V15H18V16ZM21 16H20V15H21V16ZM24 16H23V15H24V16ZM27 16H26V15H27V16ZM30 16H29V15H30V16ZM33 16H32V15H33V16ZM36 16H35V15H36V16ZM39 16H38V15H39V16ZM42 16H41V15H42V16ZM45 16H44V15H45V16ZM48 16H47V15H48V16ZM50 16V15H51V16H50ZM5 23H6V24H5V23ZM9 24H8V23H9V24ZM12 24H11V23H12V24ZM15 24H14V23H15V24ZM18 24H17V23H18V24ZM21 24H20V23H21V24ZM24 24H23V23H24V24ZM27 24H26V23H27V24ZM30 24H29V23H30V24ZM33 24H32V23H33V24ZM36 24H35V23H36V24ZM39 24H38V23H39V24ZM42 24H41V23H42V24ZM45 24H44V23H45V24ZM48 24H47V23H48V24ZM50 24V23H51V24H50ZM5 31H6V32H5V31ZM9 32H8V31H9V32ZM12 32H11V31H12V32ZM15 32H14V31H15V32ZM18 32H17V31H18V32ZM21 32H20V31H21V32ZM24 32H23V31H24V32ZM27 32H26V31H27V32ZM30 32H29V31H30V32ZM33 32H32V31H33V32ZM36 32H35V31H36V32ZM39 32H38V31H39V32ZM42 32H41V31H42V32ZM45 32H44V31H45V32ZM48 32H47V31H48V32ZM50 32V31H51V32H50ZM5 39H6V40H5V39ZM9 40H8V39H9V40ZM12 40H11V39H12V40ZM15 40H14V39H15V40ZM18 40H17V39H18V40ZM21 40H20V39H21V40ZM24 40H23V39H24V40ZM27 40H26V39H27V40ZM30 40H29V39H30V40ZM33 40H32V39H33V40ZM36 40H35V39H36V40ZM39 40H38V39H39V40ZM42 40H41V39H42V40ZM45 40H44V39H45V40ZM48 40H47V39H48V40ZM50 40V39H51V40H50Z" fill="#FFC54D"/>
<path fill-rule="evenodd" clip-rule="evenodd" d="M17.5 38.5H25.5V29.5H17.5V38.5Z" fill="white"/>
<path fill-rule="evenodd" clip-rule="evenodd" d="M17 29.5C17 29.2239 17.2239 29 17.5 29H25.5C25.7761 29 26 29.2239 26 29.5V38.5C26 38.7761 25.7761 39 25.5 39H17.5C17.2239 39 17 38.7761 17 38.5V29.5ZM18 30V38H25V30H18Z" fill="#1F204B"/>
<path fill-rule="evenodd" clip-rule="evenodd" d="M42.5 19.5H50.5V29.5H42.5V19.5Z" fill="white"/>
<path fill-rule="evenodd" clip-rule="evenodd" d="M42 29.5C42 29.7761 42.2239 30 42.5 30H50.5C50.7761 30 51 29.7761 51 29.5V19.5C51 19.2239 50.7761 19 50.5 19H42.5C42.2239 19 42 19.2239 42 19.5V29.5ZM43 29V20H50V29H43Z" fill="#1F204B"/>
<path fill-rule="evenodd" clip-rule="evenodd" d="M29.5 31.5H37.5V19.5H29.5V31.5Z" fill="white"/>
<path fill-rule="evenodd" clip-rule="evenodd" d="M29 19.5C29 19.2239 29.2239 19 29.5 19H37.5C37.7761 19 38 19.2239 38 19.5V31.5C38 31.7761 37.7761 32 37.5 32H29.5C29.2239 32 29 31.7761 29 31.5V19.5ZM30 20V31H37V20H30Z" fill="#1F204B"/>
<path fill-rule="evenodd" clip-rule="evenodd" d="M5.5 31.5H13.5V19.5H5.5V31.5Z" fill="white"/>
<path fill-rule="evenodd" clip-rule="evenodd" d="M5 19.5C5 19.2239 5.22386 19 5.5 19H13.5C13.7761 19 14 19.2239 14 19.5V31.5C14 31.7761 13.7761 32 13.5 32H5.5C5.22386 32 5 31.7761 5 31.5V19.5ZM6 20V31H13V20H6Z" fill="#1F204B"/>
<path fill-rule="evenodd" clip-rule="evenodd" d="M22 22.5L22 29.5C22 29.7761 21.7761 30 21.5 30C21.2239 30 21 29.7761 21 29.5L21 22.5C21 22.2239 21.2239 22 21.5 22C21.7761 22 22 22.2239 22 22.5Z" fill="#1F204B"/>
<path fill-rule="evenodd" clip-rule="evenodd" d="M47 36.5L47 29.5C47 29.2239 46.7761 29 46.5 29C46.2239 29 46 29.2239 46 29.5L46 36.5C46 36.7761 46.2239 37 46.5 37C46.7761 37 47 36.7761 47 36.5Z" fill="#1F204B"/>
<path fill-rule="evenodd" clip-rule="evenodd" d="M33.5 19.5C33.2239 19.5 33 19.2761 33 19L33 16C33 15.7239 33.2239 15.5 33.5 15.5C33.7761 15.5 34 15.7239 34 16L34 19C34 19.2761 33.7761 19.5 33.5 19.5Z" fill="#1F204B"/>
<path fill-rule="evenodd" clip-rule="evenodd" d="M9.5 19.5C9.22386 19.5 9 19.2761 9 19L9 16C9 15.7239 9.22386 15.5 9.5 15.5C9.77614 15.5 10 15.7239 10 16L10 19C10 19.2761 9.77614 19.5 9.5 19.5Z" fill="#1F204B"/>
<path fill-rule="evenodd" clip-rule="evenodd" d="M21.5 43.5C21.2239 43.5 21 43.2761 21 43L21 38.5C21 38.2239 21.2239 38 21.5 38C21.7761 38 22 38.2239 22 38.5L22 43C22 43.2761 21.7761 43.5 21.5 43.5Z" fill="#1F204B"/>
<path fill-rule="evenodd" clip-rule="evenodd" d="M46.5 15C46.2239 15 46 15.2239 46 15.5L46 19.5C46 19.7761 46.2239 20 46.5 20C46.7761 20 47 19.7761 47 19.5L47 15.5C47 15.2239 46.7761 15 46.5 15Z" fill="#1F204B"/>
<path fill-rule="evenodd" clip-rule="evenodd" d="M33.5 37C33.2239 37 33 36.7761 33 36.5L33 31.5C33 31.2239 33.2239 31 33.5 31C33.7761 31 34 31.2239 34 31.5L34 36.5C34 36.7761 33.7761 37 33.5 37Z" fill="#1F204B"/>
<path fill-rule="evenodd" clip-rule="evenodd" d="M9.5 37C9.22386 37 9 36.7761 9 36.5L9 32C9 31.7239 9.22386 31.5 9.5 31.5C9.77614 31.5 10 31.7239 10 32L10 36.5C10 36.7761 9.77614 37 9.5 37Z" fill="#1F204B"/>
<path fill-rule="evenodd" clip-rule="evenodd" d="M20 22.5C20 22.2239 20.2239 22 20.5 22L22.5 22C22.7761 22 23 22.2239 23 22.5C23 22.7761 22.7761 23 22.5 23L20.5 23C20.2239 23 20 22.7761 20 22.5Z" fill="#1F204B"/>
<path fill-rule="evenodd" clip-rule="evenodd" d="M45 36.5C45 36.7761 45.2239 37 45.5 37L47.5 37C47.7761 37 48 36.7761 48 36.5C48 36.2239 47.7761 36 47.5 36L45.5 36C45.2239 36 45 36.2239 45 36.5Z" fill="#1F204B"/>
<path fill-rule="evenodd" clip-rule="evenodd" d="M32 15.5C32 15.2239 32.2239 15 32.5 15L34.5 15C34.7761 15 35 15.2239 35 15.5C35 15.7761 34.7761 16 34.5 16L32.5 16C32.2239 16 32 15.7761 32 15.5Z" fill="#1F204B"/>
<path fill-rule="evenodd" clip-rule="evenodd" d="M8 15.5C8 15.2239 8.22386 15 8.5 15L10.5 15C10.7761 15 11 15.2239 11 15.5C11 15.7761 10.7761 16 10.5 16L8.5 16C8.22386 16 8 15.7761 8 15.5Z" fill="#1F204B"/>
<path fill-rule="evenodd" clip-rule="evenodd" d="M20 43C20 42.7239 20.2239 42.5 20.5 42.5L22.5 42.5C22.7761 42.5 23 42.7239 23 43C23 43.2761 22.7761 43.5 22.5 43.5L20.5 43.5C20.2239 43.5 20 43.2761 20 43Z" fill="#1F204B"/>
<path fill-rule="evenodd" clip-rule="evenodd" d="M45 15.5C45 15.7761 45.2239 16 45.5 16L47.5 16C47.7761 16 48 15.7761 48 15.5C48 15.2239 47.7761 15 47.5 15L45.5 15C45.2239 15 45 15.2239 45 15.5Z" fill="#1F204B"/>
<path fill-rule="evenodd" clip-rule="evenodd" d="M32 36.5C32 36.2239 32.2239 36 32.5 36L34.5 36C34.7761 36 35 36.2239 35 36.5C35 36.7761 34.7761 37 34.5 37L32.5 37C32.2239 37 32 36.7761 32 36.5Z" fill="#1F204B"/>
<path fill-rule="evenodd" clip-rule="evenodd" d="M8 36.5C8 36.2239 8.22386 36 8.5 36L10.5 36C10.7761 36 11 36.2239 11 36.5C11 36.7761 10.7761 37 10.5 37L8.5 37C8.22386 37 8 36.7761 8 36.5Z" fill="#1F204B"/>
<path fill-rule="evenodd" clip-rule="evenodd" d="M17.5 31.5C17.5 31.2239 17.7239 31 18 31L25 31C25.2761 31 25.5 31.2239 25.5 31.5C25.5 31.7761 25.2761 32 25 32L18 32C17.7239 32 17.5 31.7761 17.5 31.5Z" fill="#1F204B"/>
<path fill-rule="evenodd" clip-rule="evenodd" d="M42.5 27.5C42.5 27.7761 42.7239 28 43 28L50 28C50.2761 28 50.5 27.7761 50.5 27.5C50.5 27.2239 50.2761 27 50 27L43 27C42.7239 27 42.5 27.2239 42.5 27.5Z" fill="#1F204B"/>
<path fill-rule="evenodd" clip-rule="evenodd" d="M29.5 21.5C29.5 21.2239 29.7239 21 30 21L37 21C37.2761 21 37.5 21.2239 37.5 21.5C37.5 21.7761 37.2761 22 37 22L30 22C29.7239 22 29.5 21.7761 29.5 21.5Z" fill="#1F204B"/>
<path fill-rule="evenodd" clip-rule="evenodd" d="M5.5 29.5C5.5 29.2239 5.72386 29 6 29L13 29C13.2761 29 13.5 29.2239 13.5 29.5C13.5 29.7761 13.2761 30 13 30L6 30C5.72386 30 5.5 29.7761 5.5 29.5Z" fill="#1F204B"/>
<path d="M11.5 24C11.5 25.1046 10.6046 26 9.5 26C8.39543 26 7.5 25.1046 7.5 24C7.5 22.8954 8.39543 22 9.5 22C10.6046 22 11.5 22.8954 11.5 24Z" fill="#DC189C"/>
<path d="M23.5 35C23.5 36.1046 22.6046 37 21.5 37C20.3954 37 19.5 36.1046 19.5 35C19.5 33.8954 20.3954 33 21.5 33C22.6046 33 23.5 33.8954 23.5 35Z" fill="#DC189C"/>
<path d="M35.5 27C35.5 28.1046 34.6046 29 33.5 29C32.3954 29 31.5 28.1046 31.5 27C31.5 25.8954 32.3954 25 33.5 25C34.6046 25 35.5 25.8954 35.5 27Z" fill="#DC189C"/>
<path d="M48.5 24C48.5 25.1046 47.6046 26 46.5 26C45.3954 26 44.5 25.1046 44.5 24C44.5 22.8954 45.3954 22 46.5 22C47.6046 22 48.5 22.8954 48.5 24Z" fill="#DC189C"/>
</svg>
