<svg width="56" height="56" viewBox="0 0 56 56" fill="none" xmlns="http://www.w3.org/2000/svg">
<path fill-rule="evenodd" clip-rule="evenodd" d="M2.5 44.5C2.5 45.6046 3.39543 46.5 4.5 46.5H51.5C52.6046 46.5 53.5 45.6046 53.5 44.5V11.5C53.5 10.3954 52.6046 9.5 51.5 9.5H4.5C3.39543 9.5 2.5 10.3954 2.5 11.5V44.5Z" fill="white"/>
<path fill-rule="evenodd" clip-rule="evenodd" d="M2 11.5C2 10.1193 3.11929 9 4.5 9H51.5C52.8807 9 54 10.1193 54 11.5V44.5C54 45.8807 52.8807 47 51.5 47H4.5C3.11929 47 2 45.8807 2 44.5V11.5ZM4.5 10C3.67157 10 3 10.6716 3 11.5V44.5C3 45.3284 3.67157 46 4.5 46H51.5C52.3284 46 53 45.3284 53 44.5V11.5C53 10.6716 52.3284 10 51.5 10H4.5Z" fill="#1F204B"/>
<path fill-rule="evenodd" clip-rule="evenodd" d="M5 15H6V16H5V15ZM9 16H8V15H9V16ZM12 16H11V15H12V16ZM15 16H14V15H15V16ZM18 16H17V15H18V16ZM21 16H20V15H21V16ZM24 16H23V15H24V16ZM27 16H26V15H27V16ZM30 16H29V15H30V16ZM33 16H32V15H33V16ZM36 16H35V15H36V16ZM39 16H38V15H39V16ZM42 16H41V15H42V16ZM45 16H44V15H45V16ZM48 16H47V15H48V16ZM50 16V15H51V16H50ZM5 23H6V24H5V23ZM9 24H8V23H9V24ZM12 24H11V23H12V24ZM15 24H14V23H15V24ZM18 24H17V23H18V24ZM21 24H20V23H21V24ZM24 24H23V23H24V24ZM27 24H26V23H27V24ZM30 24H29V23H30V24ZM33 24H32V23H33V24ZM36 24H35V23H36V24ZM39 24H38V23H39V24ZM42 24H41V23H42V24ZM45 24H44V23H45V24ZM48 24H47V23H48V24ZM50 24V23H51V24H50ZM5 31H6V32H5V31ZM9 32H8V31H9V32ZM12 32H11V31H12V32ZM15 32H14V31H15V32ZM18 32H17V31H18V32ZM21 32H20V31H21V32ZM24 32H23V31H24V32ZM27 32H26V31H27V32ZM30 32H29V31H30V32ZM33 32H32V31H33V32ZM36 32H35V31H36V32ZM39 32H38V31H39V32ZM42 32H41V31H42V32ZM45 32H44V31H45V32ZM48 32H47V31H48V32ZM50 32V31H51V32H50ZM5 39H6V40H5V39ZM9 40H8V39H9V40ZM12 40H11V39H12V40ZM15 40H14V39H15V40ZM18 40H17V39H18V40ZM21 40H20V39H21V40ZM24 40H23V39H24V40ZM27 40H26V39H27V40ZM30 40H29V39H30V40ZM33 40H32V39H33V40ZM36 40H35V39H36V40ZM39 40H38V39H39V40ZM42 40H41V39H42V40ZM45 40H44V39H45V40ZM48 40H47V39H48V40ZM50 40V39H51V40H50Z" fill="#FFC54D"/>
<path d="M29.5 18C29.5 21.0376 27.0376 23.5 24 23.5C20.9624 23.5 18.5 21.0376 18.5 18C18.5 14.9624 20.9624 12.5 24 12.5C27.0376 12.5 29.5 14.9624 29.5 18Z" fill="white"/>
<path d="M31.5 19.5C31.5 22.8137 28.8137 25.5 25.5 25.5C22.1863 25.5 19.5 22.8137 19.5 19.5C19.5 16.1863 22.1863 13.5 25.5 13.5C28.8137 13.5 31.5 16.1863 31.5 19.5Z" fill="#53CDE4"/>
<path d="M14 28.5C14 30.7091 12.2091 32.5 10 32.5C7.79086 32.5 6 30.7091 6 28.5C6 26.2909 7.79086 24.5 10 24.5C12.2091 24.5 14 26.2909 14 28.5Z" fill="#DC189C"/>
<path fill-rule="evenodd" clip-rule="evenodd" d="M10 31.5C11.6569 31.5 13 30.1569 13 28.5C13 26.8431 11.6569 25.5 10 25.5C8.34315 25.5 7 26.8431 7 28.5C7 30.1569 8.34315 31.5 10 31.5ZM10 32.5C12.2091 32.5 14 30.7091 14 28.5C14 26.2909 12.2091 24.5 10 24.5C7.79086 24.5 6 26.2909 6 28.5C6 30.7091 7.79086 32.5 10 32.5Z" fill="#1F204B"/>
<path d="M42 28C42 30.2091 40.2091 32 38 32C35.7909 32 34 30.2091 34 28C34 25.7909 35.7909 24 38 24C40.2091 24 42 25.7909 42 28Z" fill="white"/>
<path fill-rule="evenodd" clip-rule="evenodd" d="M38 31C39.6569 31 41 29.6569 41 28C41 26.3431 39.6569 25 38 25C36.3431 25 35 26.3431 35 28C35 29.6569 36.3431 31 38 31ZM38 32C40.2091 32 42 30.2091 42 28C42 25.7909 40.2091 24 38 24C35.7909 24 34 25.7909 34 28C34 30.2091 35.7909 32 38 32Z" fill="#1F204B"/>
<path fill-rule="evenodd" clip-rule="evenodd" d="M24 23C26.7614 23 29 20.7614 29 18C29 15.2386 26.7614 13 24 13C21.2386 13 19 15.2386 19 18C19 20.7614 21.2386 23 24 23ZM24 24C27.3137 24 30 21.3137 30 18C30 14.6863 27.3137 12 24 12C20.6863 12 18 14.6863 18 18C18 21.3137 20.6863 24 24 24Z" fill="#1F204B"/>
<path d="M26 33.5C26 34.6046 25.1046 35.5 24 35.5C22.8954 35.5 22 34.6046 22 33.5C22 32.3954 22.8954 31.5 24 31.5C25.1046 31.5 26 32.3954 26 33.5Z" fill="white"/>
<path fill-rule="evenodd" clip-rule="evenodd" d="M24 34.5C24.5523 34.5 25 34.0523 25 33.5C25 32.9477 24.5523 32.5 24 32.5C23.4477 32.5 23 32.9477 23 33.5C23 34.0523 23.4477 34.5 24 34.5ZM24 35.5C25.1046 35.5 26 34.6046 26 33.5C26 32.3954 25.1046 31.5 24 31.5C22.8954 31.5 22 32.3954 22 33.5C22 34.6046 22.8954 35.5 24 35.5Z" fill="#1F204B"/>
<path d="M38 38C38 39.1046 37.1046 40 36 40C34.8954 40 34 39.1046 34 38C34 36.8954 34.8954 36 36 36C37.1046 36 38 36.8954 38 38Z" fill="#DC189C"/>
<path fill-rule="evenodd" clip-rule="evenodd" d="M36 39C36.5523 39 37 38.5523 37 38C37 37.4477 36.5523 37 36 37C35.4477 37 35 37.4477 35 38C35 38.5523 35.4477 39 36 39ZM36 40C37.1046 40 38 39.1046 38 38C38 36.8954 37.1046 36 36 36C34.8954 36 34 36.8954 34 38C34 39.1046 34.8954 40 36 40Z" fill="#1F204B"/>
<path d="M50 41.5C50 42.6046 49.1046 43.5 48 43.5C46.8954 43.5 46 42.6046 46 41.5C46 40.3954 46.8954 39.5 48 39.5C49.1046 39.5 50 40.3954 50 41.5Z" fill="white"/>
<path fill-rule="evenodd" clip-rule="evenodd" d="M48 42.5C48.5523 42.5 49 42.0523 49 41.5C49 40.9477 48.5523 40.5 48 40.5C47.4477 40.5 47 40.9477 47 41.5C47 42.0523 47.4477 42.5 48 42.5ZM48 43.5C49.1046 43.5 50 42.6046 50 41.5C50 40.3954 49.1046 39.5 48 39.5C46.8954 39.5 46 40.3954 46 41.5C46 42.6046 46.8954 43.5 48 43.5Z" fill="#1F204B"/>
</svg>
