<svg width="56" height="56" viewBox="0 0 56 56" fill="none" xmlns="http://www.w3.org/2000/svg">
<path d="M9 45V22H47V45H9Z" fill="white"/>
<path d="M9 21V13H47V21H9Z" fill="#DC189C"/>
<path fill-rule="evenodd" clip-rule="evenodd" d="M8 14.5C8 13.1193 9.11929 12 10.5 12H45.5C46.8807 12 48 13.1193 48 14.5V43.5C48 44.8807 46.8807 46 45.5 46H10.5C9.11929 46 8 44.8807 8 43.5V14.5ZM10.5 13C9.67157 13 9 13.6716 9 14.5V43.5C9 44.3284 9.67157 45 10.5 45H45.5C46.3284 45 47 44.3284 47 43.5V14.5C47 13.6716 46.3284 13 45.5 13H10.5Z" fill="#1F204B"/>
<path fill-rule="evenodd" clip-rule="evenodd" d="M8 21.5C8 21.2239 8.22386 21 8.5 21H47.5C47.7761 21 48 21.2239 48 21.5C48 21.7761 47.7761 22 47.5 22H8.5C8.22386 22 8 21.7761 8 21.5Z" fill="#1F204B"/>
<path d="M16 11H19V17H16V11Z" fill="#FFC54D"/>
<path fill-rule="evenodd" clip-rule="evenodd" d="M15 11C15 10.4477 15.4477 10 16 10H19C19.5523 10 20 10.4477 20 11V17C20 17.5523 19.5523 18 19 18H16C15.4477 18 15 17.5523 15 17V11ZM16 11V17H19V11H16Z" fill="#1F204B"/>
<path d="M37 11H40V17H37V11Z" fill="#FFC54D"/>
<path fill-rule="evenodd" clip-rule="evenodd" d="M36 11C36 10.4477 36.4477 10 37 10H40C40.5523 10 41 10.4477 41 11V17C41 17.5523 40.5523 18 40 18H37C36.4477 18 36 17.5523 36 17V11ZM37 11V17H40V11H37Z" fill="#1F204B"/>
<rect x="12" y="31" width="6" height="4" rx="1" fill="#53CDE4"/>
<rect x="12" y="38" width="6" height="4" rx="1" fill="#53CDE4"/>
<rect x="21" y="31" width="6" height="4" rx="1" fill="#53CDE4"/>
<rect x="21" y="38" width="6" height="4" rx="1" fill="#53CDE4"/>
<rect x="30" y="31" width="6" height="4" rx="1" fill="#53CDE4"/>
<rect x="39" y="31" width="6" height="4" rx="1" fill="#53CDE4"/>
<rect x="21" y="24" width="6" height="4" rx="1" fill="#53CDE4"/>
<rect x="30" y="24" width="6" height="4" rx="1" fill="#53CDE4"/>
<rect x="39" y="24" width="6" height="4" rx="1" fill="#53CDE4"/>
<rect x="30" y="38" width="6" height="4" rx="1" fill="#53CDE4"/>
</svg>
