<svg width="56" height="56" viewBox="0 0 56 56" fill="none" xmlns="http://www.w3.org/2000/svg">
<path fill-rule="evenodd" clip-rule="evenodd" d="M2.5 46C2.5 47.1046 3.39543 48 4.5 48H51.5C52.6046 48 53.5 47.1046 53.5 46V13C53.5 11.8954 52.6046 11 51.5 11H4.5C3.39543 11 2.5 11.8954 2.5 13V46Z" fill="white"/>
<path fill-rule="evenodd" clip-rule="evenodd" d="M2 13C2 11.6193 3.11929 10.5 4.5 10.5H51.5C52.8807 10.5 54 11.6193 54 13V46C54 47.3807 52.8807 48.5 51.5 48.5H4.5C3.11929 48.5 2 47.3807 2 46V13ZM4.5 11.5C3.67157 11.5 3 12.1716 3 13V46C3 46.8284 3.67157 47.5 4.5 47.5H51.5C52.3284 47.5 53 46.8284 53 46V13C53 12.1716 52.3284 11.5 51.5 11.5H4.5Z" fill="#1F204B"/>
<path fill-rule="evenodd" clip-rule="evenodd" d="M5 22H6V23H5V22ZM9 23H8V22H9V23ZM12 23H11V22H12V23ZM15 23H14V22H15V23ZM18 23H17V22H18V23ZM21 23H20V22H21V23ZM24 23H23V22H24V23ZM27 23H26V22H27V23ZM30 23H29V22H30V23ZM33 23H32V22H33V23ZM36 23H35V22H36V23ZM39 23H38V22H39V23ZM42 23H41V22H42V23ZM45 23H44V22H45V23ZM48 23H47V22H48V23ZM50 23V22H51V23H50Z" fill="#FFC54D"/>
<path fill-rule="evenodd" clip-rule="evenodd" d="M5 36H6V37H5V36ZM9 37H8V36H9V37ZM12 37H11V36H12V37ZM15 37H14V36H15V37ZM18 37H17V36H18V37ZM21 37H20V36H21V37ZM24 37H23V36H24V37ZM27 37H26V36H27V37ZM30 37H29V36H30V37ZM33 37H32V36H33V37ZM36 37H35V36H36V37ZM39 37H38V36H39V37ZM42 37H41V36H42V37ZM45 37H44V36H45V37ZM48 37H47V36H48V37ZM50 37V36H51V37H50Z" fill="#FFC54D"/>
<path fill-rule="evenodd" clip-rule="evenodd" d="M5 15.5C5 15.2239 5.22386 15 5.5 15H50.5C50.7761 15 51 15.2239 51 15.5C51 15.7761 50.7761 16 50.5 16H5.5C5.22386 16 5 15.7761 5 15.5Z" fill="#53CDE4"/>
<path fill-rule="evenodd" clip-rule="evenodd" d="M5 29.5C5 29.2239 5.22386 29 5.5 29H50.5C50.7761 29 51 29.2239 51 29.5C51 29.7761 50.7761 30 50.5 30H5.5C5.22386 30 5 29.7761 5 29.5Z" fill="#1F204B"/>
<path fill-rule="evenodd" clip-rule="evenodd" d="M5 43.5C5 43.2239 5.22386 43 5.5 43H50.5C50.7761 43 51 43.2239 51 43.5C51 43.7761 50.7761 44 50.5 44H5.5C5.22386 44 5 43.7761 5 43.5Z" fill="#53CDE4"/>
<path fill-rule="evenodd" clip-rule="evenodd" d="M30.5097 15.0001C30.7026 15.0038 30.8761 15.1182 30.9556 15.2939L40.0071 35.3025L46.5469 21.2886C46.6637 21.0383 46.9612 20.9301 47.2115 21.0469C47.4617 21.1637 47.5699 21.4612 47.4531 21.7114L40.4531 36.7114C40.3705 36.8884 40.1924 37.0011 39.9971 37C39.8017 36.9988 39.625 36.8841 39.5445 36.7061L30.4774 16.6632L23.9472 29.7236C23.8797 29.8587 23.7548 29.956 23.6073 29.9884C23.4598 30.0208 23.3056 29.9848 23.1877 29.8904L13.1877 21.8904C12.972 21.7179 12.9371 21.4033 13.1096 21.1877C13.2821 20.972 13.5967 20.9371 13.8124 21.1096L23.3294 28.7232L30.0528 15.2764C30.1391 15.1039 30.3169 14.9964 30.5097 15.0001Z" fill="#1F204B"/>
<path fill-rule="evenodd" clip-rule="evenodd" d="M25.5 29.5C25.5 30.604 24.604 31.5 23.5 31.5C22.396 31.5 21.5 30.604 21.5 29.5C21.5 28.396 22.396 27.5 23.5 27.5C24.604 27.5 25.5 28.396 25.5 29.5Z" fill="white"/>
<path fill-rule="evenodd" clip-rule="evenodd" d="M15.5 21.5C15.5 22.604 14.604 23.5 13.5 23.5C12.396 23.5 11.5 22.604 11.5 21.5C11.5 20.396 12.396 19.5 13.5 19.5C14.604 19.5 15.5 20.396 15.5 21.5Z" fill="white"/>
<path fill-rule="evenodd" clip-rule="evenodd" d="M32.5 15.5C32.5 16.604 31.604 17.5 30.5 17.5C29.396 17.5 28.5 16.604 28.5 15.5C28.5 14.396 29.396 13.5 30.5 13.5C31.604 13.5 32.5 14.396 32.5 15.5Z" fill="white"/>
<path fill-rule="evenodd" clip-rule="evenodd" d="M49 21.5C49 22.604 48.104 23.5 47 23.5C45.896 23.5 45 22.604 45 21.5C45 20.396 45.896 19.5 47 19.5C48.104 19.5 49 20.396 49 21.5Z" fill="white"/>
<path fill-rule="evenodd" clip-rule="evenodd" d="M25.5 30C25.5 31.104 24.604 32 23.5 32C22.396 32 21.5 31.104 21.5 30C21.5 28.896 22.396 28 23.5 28C24.604 28 25.5 28.896 25.5 30Z" fill="#DC189C"/>
<path fill-rule="evenodd" clip-rule="evenodd" d="M15.5 22C15.5 23.104 14.604 24 13.5 24C12.396 24 11.5 23.104 11.5 22C11.5 20.896 12.396 20 13.5 20C14.604 20 15.5 20.896 15.5 22Z" fill="#DC189C"/>
<path fill-rule="evenodd" clip-rule="evenodd" d="M49 22C49 23.104 48.104 24 47 24C45.896 24 45 23.104 45 22C45 20.896 45.896 20 47 20C48.104 20 49 20.896 49 22Z" fill="#DC189C"/>
<path fill-rule="evenodd" clip-rule="evenodd" d="M32.5 16C32.5 17.104 31.604 18 30.5 18C29.396 18 28.5 17.104 28.5 16C28.5 14.896 29.396 14 30.5 14C31.604 14 32.5 14.896 32.5 16Z" fill="#DC189C"/>
<path fill-rule="evenodd" clip-rule="evenodd" d="M23.5 28C22.6721 28 22 28.6721 22 29.5C22 30.3279 22.6721 31 23.5 31C24.3279 31 25 30.3279 25 29.5C25 28.6721 24.3279 28 23.5 28ZM21 29.5C21 28.1199 22.1199 27 23.5 27C24.8801 27 26 28.1199 26 29.5C26 30.8801 24.8801 32 23.5 32C22.1199 32 21 30.8801 21 29.5Z" fill="#1F204B"/>
<path fill-rule="evenodd" clip-rule="evenodd" d="M13.5 20C12.6721 20 12 20.6721 12 21.5C12 22.3279 12.6721 23 13.5 23C14.3279 23 15 22.3279 15 21.5C15 20.6721 14.3279 20 13.5 20ZM11 21.5C11 20.1199 12.1199 19 13.5 19C14.8801 19 16 20.1199 16 21.5C16 22.8801 14.8801 24 13.5 24C12.1199 24 11 22.8801 11 21.5Z" fill="#1F204B"/>
<path fill-rule="evenodd" clip-rule="evenodd" d="M30.5 14C29.6721 14 29 14.6721 29 15.5C29 16.3279 29.6721 17 30.5 17C31.3279 17 32 16.3279 32 15.5C32 14.6721 31.3279 14 30.5 14ZM28 15.5C28 14.1199 29.1199 13 30.5 13C31.8801 13 33 14.1199 33 15.5C33 16.8801 31.8801 18 30.5 18C29.1199 18 28 16.8801 28 15.5Z" fill="#1F204B"/>
<path fill-rule="evenodd" clip-rule="evenodd" d="M42 36.5C42 37.604 41.104 38.5 40 38.5C38.896 38.5 38 37.604 38 36.5C38 35.396 38.896 34.5 40 34.5C41.104 34.5 42 35.396 42 36.5Z" fill="#DC189C"/>
<path fill-rule="evenodd" clip-rule="evenodd" d="M40 35C39.1721 35 38.5 35.6721 38.5 36.5C38.5 37.3279 39.1721 38 40 38C40.8279 38 41.5 37.3279 41.5 36.5C41.5 35.6721 40.8279 35 40 35ZM37.5 36.5C37.5 35.1199 38.6199 34 40 34C41.3801 34 42.5 35.1199 42.5 36.5C42.5 37.8801 41.3801 39 40 39C38.6199 39 37.5 37.8801 37.5 36.5Z" fill="#1F204B"/>
<path fill-rule="evenodd" clip-rule="evenodd" d="M47 20C46.1721 20 45.5 20.6721 45.5 21.5C45.5 22.3279 46.1721 23 47 23C47.8279 23 48.5 22.3279 48.5 21.5C48.5 20.6721 47.8279 20 47 20ZM44.5 21.5C44.5 20.1199 45.6199 19 47 19C48.3801 19 49.5 20.1199 49.5 21.5C49.5 22.8801 48.3801 24 47 24C45.6199 24 44.5 22.8801 44.5 21.5Z" fill="#1F204B"/>
</svg>
