<svg width="56" height="56" viewBox="0 0 56 56" fill="none" xmlns="http://www.w3.org/2000/svg">
<path fill-rule="evenodd" clip-rule="evenodd" d="M27.5 51.5C40.2025 51.5 50.5 41.2025 50.5 28.5C50.5 15.7975 40.2025 5.5 27.5 5.5C14.7975 5.5 4.5 15.7975 4.5 28.5C4.5 41.2025 14.7975 51.5 27.5 51.5ZM27.5 40.5C34.1274 40.5 39.5 35.1274 39.5 28.5C39.5 21.8726 34.1274 16.5 27.5 16.5C20.8726 16.5 15.5 21.8726 15.5 28.5C15.5 35.1274 20.8726 40.5 27.5 40.5Z" fill="white"/>
<path fill-rule="evenodd" clip-rule="evenodd" d="M4.5 28.5C4.5 15.7975 14.7975 5.5 27.5 5.5V16.5C20.8726 16.5 15.5 21.8726 15.5 28.5C15.5 35.1274 20.8726 40.5 27.5 40.5V51.5C14.7975 51.5 4.5 41.2026 4.5 28.5Z" fill="#53CDE4"/>
<path fill-rule="evenodd" clip-rule="evenodd" d="M52.193 24.3906C49.443 14.1516 40.111 6.99963 29.5 6.99963C29.2239 6.99963 29 7.22349 29 7.49963V16.6798C29 16.9239 29.1763 17.1322 29.417 17.1726C34.735 18.0666 38.662 22.4556 38.966 27.8456C38.984 28.1623 39.2886 28.3822 39.5949 28.2998L51.8393 25.0036C52.106 24.9318 52.2643 24.6575 52.193 24.3906Z" fill="#FFC54D"/>
<path fill-rule="evenodd" clip-rule="evenodd" d="M27.5 6C15.0736 6 5 16.0736 5 28.5C5 40.9264 15.0736 51 27.5 51C39.9264 51 50 40.9264 50 28.5C50 16.0736 39.9264 6 27.5 6ZM4 28.5C4 15.5213 14.5213 5 27.5 5C40.4787 5 51 15.5213 51 28.5C51 41.4787 40.4787 52 27.5 52C14.5213 52 4 41.4787 4 28.5ZM27.5 17C21.1487 17 16 22.1487 16 28.5C16 34.8513 21.1487 40 27.5 40C33.8513 40 39 34.8513 39 28.5C39 22.1487 33.8513 17 27.5 17ZM15 28.5C15 21.5964 20.5964 16 27.5 16C34.4036 16 40 21.5964 40 28.5C40 35.4036 34.4036 41 27.5 41C20.5964 41 15 35.4036 15 28.5Z" fill="#1F204B"/>
<path fill-rule="evenodd" clip-rule="evenodd" d="M27.5 5C27.7761 5 28 5.22386 28 5.5V16.5C28 16.7761 27.7761 17 27.5 17C27.2239 17 27 16.7761 27 16.5V5.5C27 5.22386 27.2239 5 27.5 5ZM49.9808 22.3626C50.0566 22.6282 49.9029 22.9049 49.6374 22.9808L39.1374 25.9808L38.8626 25.0192L49.3626 22.0192C49.6282 21.9434 49.9049 22.0971 49.9808 22.3626Z" fill="#1F204B"/>
<path fill-rule="evenodd" clip-rule="evenodd" d="M27.5 40C27.7761 40 28 40.2239 28 40.5V51.5C28 51.7761 27.7761 52 27.5 52C27.2239 52 27 51.7761 27 51.5V40.5C27 40.2239 27.2239 40 27.5 40Z" fill="#1F204B"/>
</svg>
