<svg width="56" height="56" viewBox="0 0 56 56" fill="none" xmlns="http://www.w3.org/2000/svg">
<path d="M9.12802 9.5L46.8722 9.5C47.618 9.5 48.1013 10.2869 47.7642 10.9521L35.5001 35.1507V44.5C35.5001 45.0523 35.0524 45.5 34.5001 45.5H21.5001C20.9478 45.5 20.5001 45.0523 20.5001 44.5L20.5001 35.1507L8.23603 10.9521C7.8989 10.2869 8.38226 9.5 9.12802 9.5Z" fill="white"/>
<path d="M22 40C22 39.4477 22.4477 39 23 39H36C36.5523 39 37 39.4477 37 40V46C37 46.5523 36.5523 47 36 47H23C22.4477 47 22 46.5523 22 46V40Z" fill="#53CDE4"/>
<path d="M39 28H17L20.5 35V37H35.5V35L39 28Z" fill="#FFC54D"/>
<path fill-rule="evenodd" clip-rule="evenodd" d="M9.12794 9L46.8721 9C47.9908 9 48.7158 10.1803 48.2101 11.1781L36 35.2702V44.5C36 45.3284 35.3285 46 34.5 46H21.5C20.6716 46 20 45.3284 20 44.5V35.2701L7.78996 11.1781C7.28427 10.1803 8.00931 9 9.12794 9ZM20.985 35.0285C20.9751 34.9889 20.9604 34.9513 20.9417 34.9161L8.68195 10.726C8.51338 10.3934 8.75506 10 9.12794 10L46.8721 10C47.245 10 47.4867 10.3934 47.3181 10.726L35.0585 34.916C35.0388 34.9529 35.0236 34.9927 35.0136 35.0345C35.0036 35.0763 34.9992 35.1186 35 35.1606V44.5C35 44.7762 34.7762 45 34.5 45H21.5C21.2239 45 21 44.7762 21 44.5V35.1608C21.001 35.1168 20.9961 35.0723 20.985 35.0285Z" fill="#1F204B"/>
<path fill-rule="evenodd" clip-rule="evenodd" d="M35.5 38L21 38C20.7239 38 20.5 37.7761 20.5 37.5C20.5 37.2239 20.7239 37 21 37L35.5 37C35.7761 37 36 37.2239 36 37.5C36 37.7761 35.7761 38 35.5 38Z" fill="#1F204B"/>
<path fill-rule="evenodd" clip-rule="evenodd" d="M39.5 28L16.5 28L16.5 27L39.5 27L39.5 28Z" fill="#1F204B"/>
<path fill-rule="evenodd" clip-rule="evenodd" d="M44 18H11.5V17H44V18Z" fill="#1F204B"/>
</svg>
