<svg width="56" height="56" viewBox="0 0 56 56" fill="none" xmlns="http://www.w3.org/2000/svg">
<path fill-rule="evenodd" clip-rule="evenodd" d="M6.5 36.5C6.5 37.0523 6.94772 37.5 7.5 37.5H17.5C18.0523 37.5 18.5 37.0523 18.5 36.5V30.5C18.5 29.9477 18.0523 29.5 17.5 29.5H7.5C6.94772 29.5 6.5 29.9477 6.5 30.5V36.5Z" fill="white"/>
<path fill-rule="evenodd" clip-rule="evenodd" d="M36.5 14.5C36.5 15.0523 36.9477 15.5 37.5 15.5H47.5C48.0523 15.5 48.5 15.0523 48.5 14.5V8.5C48.5 7.94772 48.0523 7.5 47.5 7.5H37.5C36.9477 7.5 36.5 7.94772 36.5 8.5V14.5Z" fill="white"/>
<path fill-rule="evenodd" clip-rule="evenodd" d="M6.5 25.5C6.5 26.0523 6.94772 26.5 7.5 26.5H32.5C33.0523 26.5 33.5 26.0523 33.5 25.5V8.5C33.5 7.94771 33.0523 7.5 32.5 7.5H7.5C6.94771 7.5 6.5 7.94772 6.5 8.5V25.5Z" fill="white"/>
<path fill-rule="evenodd" clip-rule="evenodd" d="M7 48H18V41H7V48Z" fill="#FFC54D"/>
<path fill-rule="evenodd" clip-rule="evenodd" d="M37 26H48V19H37V26Z" fill="#53CDE4"/>
<path fill-rule="evenodd" clip-rule="evenodd" d="M22 37H33V30H22V37Z" fill="#53CDE4"/>
<path fill-rule="evenodd" clip-rule="evenodd" d="M8 27C8 27.5523 8.44772 28 9 28H34C34.5523 28 35 27.5523 35 27V10C35 9.44771 34.5523 9 34 9H9C8.44771 9 8 9.44772 8 10V27Z" fill="#DC189C"/>
<path fill-rule="evenodd" clip-rule="evenodd" d="M36 19.5C36 18.6716 36.6716 18 37.5 18H47.5C48.3284 18 49 18.6716 49 19.5V25.5C49 26.3284 48.3284 27 47.5 27H37.5C36.6716 27 36 26.3284 36 25.5V19.5ZM37.5 19C37.2239 19 37 19.2239 37 19.5V25.5C37 25.7761 37.2239 26 37.5 26H47.5C47.7761 26 48 25.7761 48 25.5V19.5C48 19.2239 47.7761 19 47.5 19H37.5Z" fill="#1F204B"/>
<path fill-rule="evenodd" clip-rule="evenodd" d="M38 16C38 16.5523 38.4477 17 39 17H49C49.5523 17 50 16.5523 50 16V10.001C50 9.44869 49.5523 9.00098 49 9.00098H39C38.4477 9.00098 38 9.44869 38 10.001V16Z" fill="#DC189C"/>
<path fill-rule="evenodd" clip-rule="evenodd" d="M36.5 36.5C36.5 37.0523 36.9477 37.5 37.5 37.5H47.5C48.0523 37.5 48.5 37.0523 48.5 36.5V30.5C48.5 29.9477 48.0523 29.5 47.5 29.5H37.5C36.9477 29.5 36.5 29.9477 36.5 30.5V36.5Z" fill="white"/>
<path fill-rule="evenodd" clip-rule="evenodd" d="M36 30.5C36 29.6716 36.6716 29 37.5 29H47.5C48.3284 29 49 29.6716 49 30.5V36.5C49 37.3284 48.3284 38 47.5 38H37.5C36.6716 38 36 37.3284 36 36.5V30.5ZM37.5 30C37.2239 30 37 30.2239 37 30.5V36.5C37 36.7761 37.2239 37 37.5 37H47.5C47.7761 37 48 36.7761 48 36.5V30.5C48 30.2239 47.7761 30 47.5 30H37.5Z" fill="#1F204B"/>
<path fill-rule="evenodd" clip-rule="evenodd" d="M21 30.5C21 29.6716 21.6716 29 22.5 29H32.5C33.3284 29 34 29.6716 34 30.5V36.5C34 37.3284 33.3284 38 32.5 38H22.5C21.6716 38 21 37.3284 21 36.5V30.5ZM22.5 30C22.2239 30 22 30.2239 22 30.5V36.5C22 36.7761 22.2239 37 22.5 37H32.5C32.7761 37 33 36.7761 33 36.5V30.5C33 30.2239 32.7761 30 32.5 30H22.5Z" fill="#1F204B"/>
<path fill-rule="evenodd" clip-rule="evenodd" d="M8 38C8 38.5523 8.44772 39 9 39H19C19.5523 39 20 38.5523 20 38V32C20 31.4477 19.5523 31 19 31H9C8.44772 31 8 31.4477 8 32V38Z" fill="#DC189C"/>
<path fill-rule="evenodd" clip-rule="evenodd" d="M6 41.5C6 40.6716 6.67157 40 7.5 40H17.5C18.3284 40 19 40.6716 19 41.5V47.5C19 48.3284 18.3284 49 17.5 49H7.5C6.67157 49 6 48.3284 6 47.5V41.5ZM7.5 41C7.22386 41 7 41.2239 7 41.5V47.5C7 47.7761 7.22386 48 7.5 48H17.5C17.7761 48 18 47.7761 18 47.5V41.5C18 41.2239 17.7761 41 17.5 41H7.5Z" fill="#1F204B"/>
<path fill-rule="evenodd" clip-rule="evenodd" d="M36.5 47.5C36.5 48.0523 36.9477 48.5 37.5 48.5H47.5C48.0523 48.5 48.5 48.0523 48.5 47.5V41.5C48.5 40.9477 48.0523 40.5 47.5 40.5H37.5C36.9477 40.5 36.5 40.9477 36.5 41.5V47.5Z" fill="white"/>
<path fill-rule="evenodd" clip-rule="evenodd" d="M36 41.5C36 40.6716 36.6716 40 37.5 40H47.5C48.3284 40 49 40.6716 49 41.5V47.5C49 48.3284 48.3284 49 47.5 49H37.5C36.6716 49 36 48.3284 36 47.5V41.5ZM37.5 41C37.2239 41 37 41.2239 37 41.5V47.5C37 47.7761 37.2239 48 37.5 48H47.5C47.7761 48 48 47.7761 48 47.5V41.5C48 41.2239 47.7761 41 47.5 41H37.5Z" fill="#1F204B"/>
<path fill-rule="evenodd" clip-rule="evenodd" d="M21.5 47.5C21.5 48.0523 21.9477 48.5 22.5 48.5H32.5C33.0523 48.5 33.5 48.0523 33.5 47.5V41.5C33.5 40.9477 33.0523 40.5 32.5 40.5H22.5C21.9477 40.5 21.5 40.9477 21.5 41.5V47.5Z" fill="white"/>
<path fill-rule="evenodd" clip-rule="evenodd" d="M21 41.5C21 40.6716 21.6716 40 22.5 40H32.5C33.3284 40 34 40.6716 34 41.5V47.5C34 48.3284 33.3284 49 32.5 49H22.5C21.6716 49 21 48.3284 21 47.5V41.5ZM22.5 41C22.2239 41 22 41.2239 22 41.5V47.5C22 47.7761 22.2239 48 22.5 48H32.5C32.7761 48 33 47.7761 33 47.5V41.5C33 41.2239 32.7761 41 32.5 41H22.5Z" fill="#1F204B"/>
<path fill-rule="evenodd" clip-rule="evenodd" d="M6 30.5C6 29.6716 6.67157 29 7.5 29H17.5C18.3284 29 19 29.6716 19 30.5V36.5C19 37.3284 18.3284 38 17.5 38H7.5C6.67157 38 6 37.3284 6 36.5V30.5ZM7.5 30C7.22386 30 7 30.2239 7 30.5V36.5C7 36.7761 7.22386 37 7.5 37H17.5C17.7761 37 18 36.7761 18 36.5V30.5C18 30.2239 17.7761 30 17.5 30H7.5Z" fill="#1F204B"/>
<path fill-rule="evenodd" clip-rule="evenodd" d="M36 8.5C36 7.67157 36.6716 7 37.5 7H47.5C48.3284 7 49 7.67157 49 8.5V14.5C49 15.3284 48.3284 16 47.5 16H37.5C36.6716 16 36 15.3284 36 14.5V8.5ZM37.5 8C37.2239 8 37 8.22386 37 8.5V14.5C37 14.7761 37.2239 15 37.5 15H47.5C47.7761 15 48 14.7761 48 14.5V8.5C48 8.22386 47.7761 8 47.5 8H37.5Z" fill="#1F204B"/>
<path fill-rule="evenodd" clip-rule="evenodd" d="M6 8.5C6 7.67157 6.67157 7 7.5 7H32.5C33.3284 7 34 7.67157 34 8.5V25.5C34 26.3284 33.3284 27 32.5 27H7.5C6.67157 27 6 26.3284 6 25.5V8.5ZM7.5 8C7.22386 8 7 8.22386 7 8.5V25.5C7 25.7761 7.22386 26 7.5 26H32.5C32.7761 26 33 25.7761 33 25.5V8.5C33 8.22386 32.7761 8 32.5 8H7.5Z" fill="#1F204B"/>
</svg>
