<svg width="56" height="56" viewBox="0 0 56 56" fill="none" xmlns="http://www.w3.org/2000/svg">
<path fill-rule="evenodd" clip-rule="evenodd" d="M2.5 44.5C2.5 45.6046 3.39543 46.5 4.5 46.5H51.5C52.6046 46.5 53.5 45.6046 53.5 44.5V11.5C53.5 10.3954 52.6046 9.5 51.5 9.5H4.5C3.39543 9.5 2.5 10.3954 2.5 11.5V44.5Z" fill="white"/>
<path fill-rule="evenodd" clip-rule="evenodd" d="M2 11.5C2 10.1193 3.11929 9 4.5 9H51.5C52.8807 9 54 10.1193 54 11.5V44.5C54 45.8807 52.8807 47 51.5 47H4.5C3.11929 47 2 45.8807 2 44.5V11.5ZM4.5 10C3.67157 10 3 10.6716 3 11.5V44.5C3 45.3284 3.67157 46 4.5 46H51.5C52.3284 46 53 45.3284 53 44.5V11.5C53 10.6716 52.3284 10 51.5 10H4.5Z" fill="#1F204B"/>
<path fill-rule="evenodd" clip-rule="evenodd" d="M5 13H6V14H5V13ZM9 14H8V13H9V14ZM12 14H11V13H12V14ZM15 14H14V13H15V14ZM18 14H17V13H18V14ZM21 14H20V13H21V14ZM24 14H23V13H24V14ZM27 14H26V13H27V14ZM30 14H29V13H30V14ZM33 14H32V13H33V14ZM36 14H35V13H36V14ZM39 14H38V13H39V14ZM42 14H41V13H42V14ZM45 14H44V13H45V14ZM48 14H47V13H48V14ZM50 14V13H51V14H50ZM5 21H6V22H5V21ZM9 22H8V21H9V22ZM12 22H11V21H12V22ZM15 22H14V21H15V22ZM18 22H17V21H18V22ZM21 22H20V21H21V22ZM24 22H23V21H24V22ZM27 22H26V21H27V22ZM30 22H29V21H30V22ZM33 22H32V21H33V22ZM36 22H35V21H36V22ZM39 22H38V21H39V22ZM42 22H41V21H42V22ZM45 22H44V21H45V22ZM48 22H47V21H48V22ZM50 22V21H51V22H50ZM5 29H6V30H5V29ZM9 30H8V29H9V30ZM12 30H11V29H12V30ZM15 30H14V29H15V30ZM18 30H17V29H18V30ZM21 30H20V29H21V30ZM24 30H23V29H24V30ZM27 30H26V29H27V30ZM30 30H29V29H30V30ZM33 30H32V29H33V30ZM36 30H35V29H36V30ZM39 30H38V29H39V30ZM42 30H41V29H42V30ZM45 30H44V29H45V30ZM48 30H47V29H48V30ZM50 30V29H51V30H50ZM5 37H6V38H5V37ZM9 38H8V37H9V38ZM12 38H11V37H12V38ZM15 38H14V37H15V38ZM18 38H17V37H18V38ZM21 38H20V37H21V38ZM24 38H23V37H24V38ZM27 38H26V37H27V38ZM30 38H29V37H30V38ZM33 38H32V37H33V38ZM36 38H35V37H36V38ZM39 38H38V37H39V38ZM42 38H41V37H42V38ZM45 38H44V37H45V38ZM48 38H47V37H48V38ZM50 38V37H51V38H50Z" fill="#FFC54D"/>
<path fill-rule="evenodd" clip-rule="evenodd" d="M8 46H14V39H8V46Z" fill="#53CDE4"/>
<path fill-rule="evenodd" clip-rule="evenodd" d="M22 46H28V17H22V46Z" fill="#53CDE4"/>
<path fill-rule="evenodd" clip-rule="evenodd" d="M37 46H44V34C44 33.4477 43.5523 33 43 33H38C37.4477 33 37 33.4477 37 34V46Z" fill="#DC189C"/>
<path fill-rule="evenodd" clip-rule="evenodd" d="M7 40.5C7 39.6716 7.67157 39 8.5 39H13.5C14.3284 39 15 39.6716 15 40.5V46.5C15 46.7761 14.7761 47 14.5 47H7.5C7.22386 47 7 46.7761 7 46.5V40.5ZM8.5 40C8.22386 40 8 40.2239 8 40.5V46H14V40.5C14 40.2239 13.7761 40 13.5 40H8.5Z" fill="#1F204B"/>
<path d="M21.5 46.5H14.5V32.5C14.5 31.9477 14.9477 31.5 15.5 31.5H20.5C21.0523 31.5 21.5 31.9477 21.5 32.5V46.5Z" fill="white"/>
<path fill-rule="evenodd" clip-rule="evenodd" d="M14 32.5C14 31.6716 14.6716 31 15.5 31H20.5C21.3284 31 22 31.6716 22 32.5V46.5C22 46.7761 21.7761 47 21.5 47H14.5C14.2239 47 14 46.7761 14 46.5V32.5ZM15.5 32C15.2239 32 15 32.2239 15 32.5V46H21V32.5C21 32.2239 20.7761 32 20.5 32H15.5Z" fill="#1F204B"/>
<path fill-rule="evenodd" clip-rule="evenodd" d="M21 18.5C21 17.6716 21.6716 17 22.5 17H27.5C28.3284 17 29 17.6716 29 18.5V46.5C29 46.7761 28.7761 47 28.5 47H21.5C21.2239 47 21 46.7761 21 46.5V18.5ZM22.5 18C22.2239 18 22 18.2239 22 18.5V46H28V18.5C28 18.2239 27.7761 18 27.5 18H22.5Z" fill="#1F204B"/>
<path d="M35.5 46.5H28.5V26.5C28.5 25.9477 28.9477 25.5 29.5 25.5H34.5C35.0523 25.5 35.5 25.9477 35.5 26.5V46.5Z" fill="white"/>
<path fill-rule="evenodd" clip-rule="evenodd" d="M28 26.5C28 25.6716 28.6716 25 29.5 25H34.5C35.3284 25 36 25.6716 36 26.5V46.5C36 46.7761 35.7761 47 35.5 47H28.5C28.2239 47 28 46.7761 28 46.5V26.5ZM29.5 26C29.2239 26 29 26.2239 29 26.5V46H35V26.5C35 26.2239 34.7761 26 34.5 26H29.5Z" fill="#1F204B"/>
<path fill-rule="evenodd" clip-rule="evenodd" d="M35 32.5C35 31.6716 35.6716 31 36.5 31H41.5C42.3284 31 43 31.6716 43 32.5V45.5C43 46.3284 42.3284 47 41.5 47H36.5C35.6716 47 35 46.3284 35 45.5V32.5ZM36.5 32C36.2239 32 36 32.2239 36 32.5V45.5C36 45.7761 36.2239 46 36.5 46H41.5C41.7761 46 42 45.7761 42 45.5V32.5C42 32.2239 41.7761 32 41.5 32H36.5Z" fill="#1F204B"/>
<path d="M49.5 46.5H42.5V38.5C42.5 37.9477 42.9477 37.5 43.5 37.5H48.5C49.0523 37.5 49.5 37.9477 49.5 38.5V46.5Z" fill="white"/>
<path fill-rule="evenodd" clip-rule="evenodd" d="M42 38.5C42 37.6716 42.6716 37 43.5 37H48.5C49.3284 37 50 37.6716 50 38.5V46.5C50 46.7761 49.7761 47 49.5 47H42.5C42.2239 47 42 46.7761 42 46.5V38.5ZM43.5 38C43.2239 38 43 38.2239 43 38.5V46H49V38.5C49 38.2239 48.7761 38 48.5 38H43.5Z" fill="#1F204B"/>
</svg>
