<svg width="56" height="56" viewBox="0 0 56 56" fill="none" xmlns="http://www.w3.org/2000/svg">
<path fill-rule="evenodd" clip-rule="evenodd" d="M2.5 44.5C2.5 45.6046 3.39543 46.5 4.5 46.5H51.5C52.6046 46.5 53.5 45.6046 53.5 44.5V11.5C53.5 10.3954 52.6046 9.5 51.5 9.5H4.5C3.39543 9.5 2.5 10.3954 2.5 11.5V44.5Z" fill="white"/>
<path fill-rule="evenodd" clip-rule="evenodd" d="M2 11.5C2 10.1193 3.11929 9 4.5 9H51.5C52.8807 9 54 10.1193 54 11.5V44.5C54 45.8807 52.8807 47 51.5 47H4.5C3.11929 47 2 45.8807 2 44.5V11.5ZM4.5 10C3.67157 10 3 10.6716 3 11.5V44.5C3 45.3284 3.67157 46 4.5 46H51.5C52.3284 46 53 45.3284 53 44.5V11.5C53 10.6716 52.3284 10 51.5 10H4.5Z" fill="#1F204B"/>
<path fill-rule="evenodd" clip-rule="evenodd" d="M47 13L47 14L46 14L46 13L47 13ZM46 17L46 16L47 16L47 17L46 17ZM46 20L46 19L47 19L47 20L46 20ZM46 23L46 22L47 22L47 23L46 23ZM46 26L46 25L47 25L47 26L46 26ZM46 29L46 28L47 28L47 29L46 29ZM46 32L46 31L47 31L47 32L46 32ZM46 35L46 34L47 34L47 35L46 35ZM46 38L46 37L47 37L47 38L46 38ZM46 41L46 40L47 40L47 41L46 41ZM46 43L47 43L47 44L46 44L46 43ZM35 13L35 14L34 14L34 13L35 13ZM34 17L34 16L35 16L35 17L34 17ZM34 20L34 19L35 19L35 20L34 20ZM34 23L34 22L35 22L35 23L34 23ZM34 26L34 25L35 25L35 26L34 26ZM34 29L34 28L35 28L35 29L34 29ZM34 32L34 31L35 31L35 32L34 32ZM34 35L34 34L35 34L35 35L34 35ZM34 38L34 37L35 37L35 38L34 38ZM34 41L34 40L35 40L35 41L34 41ZM34 43L35 43L35 44L34 44L34 43ZM23 13L23 14L22 14L22 13L23 13ZM22 17L22 16L23 16L23 17L22 17ZM22 20L22 19L23 19L23 20L22 20ZM22 23L22 22L23 22L23 23L22 23ZM22 26L22 25L23 25L23 26L22 26ZM22 29L22 28L23 28L23 29L22 29ZM22 32L22 31L23 31L23 32L22 32ZM22 35L22 34L23 34L23 35L22 35ZM22 38L22 37L23 37L23 38L22 38ZM22 41L22 40L23 40L23 41L22 41ZM22 43L23 43L23 44L22 44L22 43ZM11 13L11 14L10 14L10 13L11 13ZM10 17L10 16L11 16L11 17L10 17ZM10 20L10 19L11 19L11 20L10 20ZM10 23L10 22L11 22L11 23L10 23ZM10 26L10 25L11 25L11 26L10 26ZM10 29L10 28L11 28L11 29L10 29ZM10 32L10 31L11 31L11 32L10 32ZM10 35L10 34L11 34L11 35L10 35ZM10 38L10 37L11 37L11 38L10 38ZM10 41L10 40L11 40L11 41L10 41ZM10 43L11 43L11 44L10 44L10 43Z" fill="#FFC54D"/>
<path d="M2.5 13.5H41.5C42.0523 13.5 42.5 13.9477 42.5 14.5V20.5C42.5 21.0523 42.0523 21.5 41.5 21.5H2.5V13.5Z" fill="#53CDE4"/>
<path fill-rule="evenodd" clip-rule="evenodd" d="M2 13.5C2 13.2239 2.22386 13 2.5 13H41.5C42.3284 13 43 13.6716 43 14.5V20.5C43 21.3284 42.3284 22 41.5 22H2.5C2.22386 22 2 21.7761 2 21.5V13.5ZM3 14V21H41.5C41.7761 21 42 20.7761 42 20.5V14.5C42 14.2239 41.7761 14 41.5 14H3Z" fill="#1F204B"/>
<path d="M2.5 24.5H30.5C31.0523 24.5 31.5 24.9477 31.5 25.5V31.5C31.5 32.0523 31.0523 32.5 30.5 32.5H2.5V24.5Z" fill="white"/>
<path fill-rule="evenodd" clip-rule="evenodd" d="M2 24.5C2 24.2239 2.22386 24 2.5 24H30.5C31.3284 24 32 24.6716 32 25.5V31.5C32 32.3284 31.3284 33 30.5 33H2.5C2.22386 33 2 32.7761 2 32.5V24.5ZM3 25V32H30.5C30.7761 32 31 31.7761 31 31.5V25.5C31 25.2239 30.7761 25 30.5 25H3Z" fill="#1F204B"/>
<path d="M3 26H29C29.5523 26 30 26.4477 30 27V33C30 33.5523 29.5523 34 29 34H3V26Z" fill="#DC189C"/>
<path d="M2.5 35.5H14.5C15.0523 35.5 15.5 35.9477 15.5 36.5V42.5C15.5 43.0523 15.0523 43.5 14.5 43.5H2.5V35.5Z" fill="#53CDE4"/>
<path fill-rule="evenodd" clip-rule="evenodd" d="M2 35.5C2 35.2239 2.22386 35 2.5 35H14.5C15.3284 35 16 35.6716 16 36.5V42.5C16 43.3284 15.3284 44 14.5 44H2.5C2.22386 44 2 43.7761 2 43.5V35.5ZM3 36V43H14.5C14.7761 43 15 42.7761 15 42.5V36.5C15 36.2239 14.7761 36 14.5 36H3Z" fill="#1F204B"/>
<path fill-rule="evenodd" clip-rule="evenodd" d="M2 24.5C2 24.2239 2.22386 24 2.5 24H30.5C31.3284 24 32 24.6716 32 25.5V31.5C32 32.3284 31.3284 33 30.5 33H2.5C2.22386 33 2 32.7761 2 32.5V24.5ZM3 25V32H30.5C30.7761 32 31 31.7761 31 31.5V25.5C31 25.2239 30.7761 25 30.5 25H3Z" fill="#1F204B"/>
</svg>
