<svg width="56" height="56" viewBox="0 0 56 56" fill="none" xmlns="http://www.w3.org/2000/svg">
<path fill-rule="evenodd" clip-rule="evenodd" d="M2.5 44.5C2.5 45.6046 3.39543 46.5 4.5 46.5H51.5C52.6046 46.5 53.5 45.6046 53.5 44.5V11.5C53.5 10.3954 52.6046 9.5 51.5 9.5H4.5C3.39543 9.5 2.5 10.3954 2.5 11.5V44.5Z" fill="white"/>
<path fill-rule="evenodd" clip-rule="evenodd" d="M2 11.5C2 10.1193 3.11929 9 4.5 9H51.5C52.8807 9 54 10.1193 54 11.5V44.5C54 45.8807 52.8807 47 51.5 47H4.5C3.11929 47 2 45.8807 2 44.5V11.5ZM4.5 10C3.67157 10 3 10.6716 3 11.5V44.5C3 45.3284 3.67157 46 4.5 46H51.5C52.3284 46 53 45.3284 53 44.5V11.5C53 10.6716 52.3284 10 51.5 10H4.5Z" fill="#1F204B"/>
<path fill-rule="evenodd" clip-rule="evenodd" d="M5 15H6V16H5V15ZM9 16H8V15H9V16ZM12 16H11V15H12V16ZM15 16H14V15H15V16ZM18 16H17V15H18V16ZM21 16H20V15H21V16ZM24 16H23V15H24V16ZM27 16H26V15H27V16ZM30 16H29V15H30V16ZM33 16H32V15H33V16ZM36 16H35V15H36V16ZM39 16H38V15H39V16ZM42 16H41V15H42V16ZM45 16H44V15H45V16ZM48 16H47V15H48V16ZM50 16V15H51V16H50ZM5 23H6V24H5V23ZM9 24H8V23H9V24ZM12 24H11V23H12V24ZM15 24H14V23H15V24ZM18 24H17V23H18V24ZM21 24H20V23H21V24ZM24 24H23V23H24V24ZM27 24H26V23H27V24ZM30 24H29V23H30V24ZM33 24H32V23H33V24ZM36 24H35V23H36V24ZM39 24H38V23H39V24ZM42 24H41V23H42V24ZM45 24H44V23H45V24ZM48 24H47V23H48V24ZM50 24V23H51V24H50ZM5 31H6V32H5V31ZM9 32H8V31H9V32ZM12 32H11V31H12V32ZM15 32H14V31H15V32ZM18 32H17V31H18V32ZM21 32H20V31H21V32ZM24 32H23V31H24V32ZM27 32H26V31H27V32ZM30 32H29V31H30V32ZM33 32H32V31H33V32ZM36 32H35V31H36V32ZM39 32H38V31H39V32ZM42 32H41V31H42V32ZM45 32H44V31H45V32ZM48 32H47V31H48V32ZM50 32V31H51V32H50ZM5 39H6V40H5V39ZM9 40H8V39H9V40ZM12 40H11V39H12V40ZM15 40H14V39H15V40ZM18 40H17V39H18V40ZM21 40H20V39H21V40ZM24 40H23V39H24V40ZM27 40H26V39H27V40ZM30 40H29V39H30V40ZM33 40H32V39H33V40ZM36 40H35V39H36V40ZM39 40H38V39H39V40ZM42 40H41V39H42V40ZM45 40H44V39H45V40ZM48 40H47V39H48V40ZM50 40V39H51V40H50Z" fill="#FFC54D"/>
<path fill-rule="evenodd" clip-rule="evenodd" d="M49.1822 18.3139L40.9341 32.748C40.8524 32.8909 40.7056 32.9845 40.5416 32.9982C40.3775 33.0119 40.2172 32.944 40.113 32.8166L31.5881 22.3972L23.9411 36.7352C23.8628 36.8821 23.7166 36.9803 23.5511 36.9973C23.3855 37.0143 23.2224 36.9479 23.1159 36.82L18.6224 31.4279L12.9539 43.7095C12.875 43.8804 12.7068 43.9926 12.5186 43.9996C12.3305 44.0066 12.1543 43.9074 12.0629 43.7428L6.82007 34.3057L7.69423 33.82L12.4587 42.3961L18.046 30.2904C18.1179 30.1347 18.2645 30.0267 18.4346 30.0042C18.6046 29.9818 18.7743 30.0481 18.8841 30.1798L23.4084 35.6091L31.0588 21.2646C31.1375 21.1171 31.2847 21.0187 31.4511 21.0023C31.6175 20.986 31.7811 21.0539 31.8869 21.1833L40.4266 31.6206L48.3139 17.8177L49.1822 18.3139Z" fill="#53CDE4"/>
<path fill-rule="evenodd" clip-rule="evenodd" d="M49.1822 17.3139L40.9341 31.748C40.8524 31.8909 40.7056 31.9845 40.5416 31.9982C40.3775 32.0119 40.2172 31.944 40.113 31.8166L31.5881 21.3972L23.9411 35.7352C23.8628 35.8821 23.7166 35.9803 23.5511 35.9973C23.3855 36.0143 23.2224 35.9479 23.1159 35.82L18.6224 30.4279L12.9539 42.7095C12.875 42.8804 12.7068 42.9926 12.5186 42.9996C12.3305 43.0066 12.1543 42.9074 12.0629 42.7428L6.82007 33.3057L7.69423 32.82L12.4587 41.3961L18.046 29.2904C18.1179 29.1347 18.2645 29.0267 18.4346 29.0042C18.6046 28.9818 18.7743 29.0481 18.8841 29.1798L23.4084 34.6091L31.0588 20.2646C31.1375 20.1171 31.2847 20.0187 31.4511 20.0023C31.6175 19.986 31.7811 20.0539 31.8869 20.1833L40.4266 30.6206L48.3139 16.8177L49.1822 17.3139Z" fill="#1F204B"/>
</svg>
