<svg width="56" height="56" viewBox="0 0 56 56" fill="none" xmlns="http://www.w3.org/2000/svg">
<path fill-rule="evenodd" clip-rule="evenodd" d="M2.5 44.5C2.5 45.6046 3.39543 46.5 4.5 46.5H51.5C52.6046 46.5 53.5 45.6046 53.5 44.5V11.5C53.5 10.3954 52.6046 9.5 51.5 9.5H4.5C3.39543 9.5 2.5 10.3954 2.5 11.5V44.5Z" fill="white"/>
<path fill-rule="evenodd" clip-rule="evenodd" d="M2 11.5C2 10.1193 3.11929 9 4.5 9H51.5C52.8807 9 54 10.1193 54 11.5V44.5C54 45.8807 52.8807 47 51.5 47H4.5C3.11929 47 2 45.8807 2 44.5V11.5ZM4.5 10C3.67157 10 3 10.6716 3 11.5V44.5C3 45.3284 3.67157 46 4.5 46H51.5C52.3284 46 53 45.3284 53 44.5V11.5C53 10.6716 52.3284 10 51.5 10H4.5Z" fill="#1F204B"/>
<path d="M8 27C8 26.4477 8.44772 26 9 26H13C13.5523 26 14 26.4477 14 27V31C14 31.5523 13.5523 32 13 32H9C8.44772 32 8 31.5523 8 31V27Z" fill="#DC189C"/>
<path d="M17 28C17 27.4477 17.4477 27 18 27H49C49.5523 27 50 27.4477 50 28V30C50 30.5523 49.5523 31 49 31H18C17.4477 31 17 30.5523 17 30V28Z" fill="#DC189C"/>
<path fill-rule="evenodd" clip-rule="evenodd" d="M6 14.5C6 13.6716 6.67157 13 7.5 13H11.5C12.3284 13 13 13.6716 13 14.5V18.5C13 19.3284 12.3284 20 11.5 20H7.5C6.67157 20 6 19.3284 6 18.5V14.5ZM7.5 14C7.22386 14 7 14.2239 7 14.5V18.5C7 18.7761 7.22386 19 7.5 19H11.5C11.7761 19 12 18.7761 12 18.5V14.5C12 14.2239 11.7761 14 11.5 14H7.5Z" fill="#1F204B"/>
<path fill-rule="evenodd" clip-rule="evenodd" d="M6 25.5C6 24.6716 6.67157 24 7.5 24H11.5C12.3284 24 13 24.6716 13 25.5V29.5C13 30.3284 12.3284 31 11.5 31H7.5C6.67157 31 6 30.3284 6 29.5V25.5ZM7.5 25C7.22386 25 7 25.2239 7 25.5V29.5C7 29.7761 7.22386 30 7.5 30H11.5C11.7761 30 12 29.7761 12 29.5V25.5C12 25.2239 11.7761 25 11.5 25H7.5Z" fill="#1F204B"/>
<path fill-rule="evenodd" clip-rule="evenodd" d="M6 36.5C6 35.6716 6.67157 35 7.5 35H11.5C12.3284 35 13 35.6716 13 36.5V40.5C13 41.3284 12.3284 42 11.5 42H7.5C6.67157 42 6 41.3284 6 40.5V36.5ZM7.5 36C7.22386 36 7 36.2239 7 36.5V40.5C7 40.7761 7.22386 41 7.5 41H11.5C11.7761 41 12 40.7761 12 40.5V36.5C12 36.2239 11.7761 36 11.5 36H7.5Z" fill="#1F204B"/>
<path fill-rule="evenodd" clip-rule="evenodd" d="M15 15.5C15 14.6716 15.6716 14 16.5 14H47.5C48.3284 14 49 14.6716 49 15.5V17.5C49 18.3284 48.3284 19 47.5 19H16.5C15.6716 19 15 18.3284 15 17.5V15.5ZM16.5 15C16.2239 15 16 15.2239 16 15.5V17.5C16 17.7761 16.2239 18 16.5 18H47.5C47.7761 18 48 17.7761 48 17.5V15.5C48 15.2239 47.7761 15 47.5 15H16.5Z" fill="#1F204B"/>
<path fill-rule="evenodd" clip-rule="evenodd" d="M15 26.5C15 25.6716 15.6716 25 16.5 25H47.5C48.3284 25 49 25.6716 49 26.5V28.5C49 29.3284 48.3284 30 47.5 30H16.5C15.6716 30 15 29.3284 15 28.5V26.5ZM16.5 26C16.2239 26 16 26.2239 16 26.5V28.5C16 28.7761 16.2239 29 16.5 29H47.5C47.7761 29 48 28.7761 48 28.5V26.5C48 26.2239 47.7761 26 47.5 26H16.5Z" fill="#1F204B"/>
<path fill-rule="evenodd" clip-rule="evenodd" d="M15 37.5C15 36.6716 15.6716 36 16.5 36H47.5C48.3284 36 49 36.6716 49 37.5V39.5C49 40.3284 48.3284 41 47.5 41H16.5C15.6716 41 15 40.3284 15 39.5V37.5ZM16.5 37C16.2239 37 16 37.2239 16 37.5V39.5C16 39.7761 16.2239 40 16.5 40H47.5C47.7761 40 48 39.7761 48 39.5V37.5C48 37.2239 47.7761 37 47.5 37H16.5Z" fill="#1F204B"/>
</svg>
