<svg width="56" height="56" viewBox="0 0 56 56" fill="none" xmlns="http://www.w3.org/2000/svg">
<circle cx="28.5" cy="27.5" r="23" fill="white"/>
<path fill-rule="evenodd" clip-rule="evenodd" d="M20 49L22 45C22 45 22 38 31 38L37 43L39.5 47.5C39.5 47.5 29 53 20 49Z" fill="#FFC54D"/>
<path fill-rule="evenodd" clip-rule="evenodd" d="M17.5 36.5C15.5 32.5 20.5 31.5 20.5 31.5L31.5 26.5C31.5 26.5 29.782 15.82 27.5 15.5C22.563 14.809 18.272 8.48199 18.246 8.44299C11.237 12.384 6.5 19.887 6.5 28.5C6.5 33.874 8.348 38.813 11.436 42.728C19.354 43.949 18.472 38.444 17.5 36.5Z" fill="#53CDE4"/>
<path d="M17.2455 7.4425C17.2725 7.4825 21.5635 13.8085 26.4995 14.5005C28.7825 14.8195 30.4995 25.5005 30.4995 25.5005L19.4995 30.5005C19.4995 30.5005 14.4995 31.5005 16.4995 35.5005C17.4715 37.4445 18.4999 41.5 10.4355 41.7275M20.2285 48.9605C20.2485 48.9085 21.2765 46.3855 21.4995 45.5005C22.2229 42.6354 22.4897 38.6508 30.0643 37.559C30.3384 37.5195 30.6203 37.6011 30.833 37.7784L36.3694 42.392C36.4556 42.4638 36.529 42.5496 36.5867 42.6458L39.4995 47.5005" stroke="#1F204B" stroke-linecap="round" stroke-linejoin="round"/>
<path fill-rule="evenodd" clip-rule="evenodd" d="M19.3415 30.0229C19.3386 30.0235 19.3356 30.0242 19.3324 30.0249C19.2914 30.0344 19.2333 30.0484 19.1612 30.0675C19.0171 30.1056 18.816 30.1643 18.5819 30.2479C18.1178 30.4137 17.5046 30.6841 16.95 31.1C16.3948 31.5165 15.8712 32.0998 15.6443 32.8939C15.415 33.6965 15.5103 34.6386 16.0528 35.7237C16.5295 36.6771 16.9253 37.9802 16.4075 39.0377C15.9078 40.058 14.4119 41.1154 10.4219 41.2282C10.1459 41.236 9.92843 41.4661 9.93624 41.7422C9.94404 42.0182 10.1741 42.2356 10.4502 42.2278C14.5242 42.1127 16.5462 41.0281 17.3056 39.4774C18.0468 37.9639 17.4426 36.267 16.9473 35.2764C16.4898 34.3615 16.4601 33.6786 16.6058 33.1687C16.7539 32.6503 17.1052 32.2336 17.55 31.9C17.9955 31.566 18.5073 31.3364 18.9182 31.1897C19.1216 31.117 19.2954 31.0664 19.417 31.0342C19.4777 31.0181 19.5251 31.0067 19.5563 30.9996C19.5719 30.996 19.5834 30.9935 19.5905 30.9919L19.5984 30.9903" fill="#1F204B"/>
<path fill-rule="evenodd" clip-rule="evenodd" d="M46.5 13.5L44.5 18.5L38.5 20.5C38.5 20.5 39.5 29.5 44.5 29.5C44.5 29.5 50.476 29.502 47.516 40.438C50.029 36.752 51.5 32.298 51.5 27.5C51.5 22.132 49.661 17.194 46.579 13.281L46.5 13.5Z" fill="#FFC54D"/>
<path d="M47.516 40.438C50.476 29.502 44.5 29.5 44.5 29.5C40.4172 29.5 39.0015 23.4991 38.6195 21.2974C38.5389 20.8328 38.8196 20.3935 39.2669 20.2444L44.06 18.6467C44.3391 18.5537 44.563 18.3425 44.6723 18.0694L46.5 13.5L46.579 13.281" stroke="#1F204B" stroke-linecap="round" stroke-linejoin="round"/>
<path fill-rule="evenodd" clip-rule="evenodd" d="M35 21.5C35 24.538 32.537 27 29.5 27C26.463 27 24 24.538 24 21.5C24 18.462 26.463 16 29.5 16C32.537 16 35 18.462 35 21.5Z" fill="white"/>
<path fill-rule="evenodd" clip-rule="evenodd" d="M29.5 16.5C26.7391 16.5 24.5 18.7382 24.5 21.5C24.5 24.2618 26.7391 26.5 29.5 26.5C32.2609 26.5 34.5 24.2618 34.5 21.5C34.5 18.7382 32.2609 16.5 29.5 16.5ZM23.5 21.5C23.5 18.1858 26.1869 15.5 29.5 15.5C32.8131 15.5 35.5 18.1858 35.5 21.5C35.5 24.8142 32.8131 27.5 29.5 27.5C26.1869 27.5 23.5 24.8142 23.5 21.5Z" fill="#1F204B"/>
<path fill-rule="evenodd" clip-rule="evenodd" d="M33 21.5C33 23.433 31.433 25 29.5 25C27.567 25 26 23.433 26 21.5C26 19.567 27.567 18 29.5 18C31.433 18 33 19.567 33 21.5Z" fill="#DC189C"/>
<path fill-rule="evenodd" clip-rule="evenodd" d="M33 21.5C33 23.433 31.433 25 29.5 25C27.567 25 26 23.433 26 21.5C26 19.567 27.567 18 29.5 18C31.433 18 33 19.567 33 21.5Z" stroke="#1F204B" stroke-linecap="round" stroke-linejoin="round"/>
<path fill-rule="evenodd" clip-rule="evenodd" d="M28.5 5C16.0736 5 6 15.0736 6 27.5C6 39.9264 16.0736 50 28.5 50C40.9264 50 51 39.9264 51 27.5C51 15.0736 40.9264 5 28.5 5ZM5 27.5C5 14.5213 15.5213 4 28.5 4C41.4787 4 52 14.5213 52 27.5C52 40.4787 41.4787 51 28.5 51C15.5213 51 5 40.4787 5 27.5Z" fill="#1F204B"/>
</svg>
