<svg width="56" height="56" viewBox="0 0 56 56" fill="none" xmlns="http://www.w3.org/2000/svg">
<path fill-rule="evenodd" clip-rule="evenodd" d="M2.5 44.5C2.5 45.6046 3.39543 46.5 4.5 46.5H51.5C52.6046 46.5 53.5 45.6046 53.5 44.5V11.5C53.5 10.3954 52.6046 9.5 51.5 9.5H4.5C3.39543 9.5 2.5 10.3954 2.5 11.5V44.5Z" fill="white"/>
<path fill-rule="evenodd" clip-rule="evenodd" d="M2 11.5C2 10.1193 3.11929 9 4.5 9H51.5C52.8807 9 54 10.1193 54 11.5V44.5C54 45.8807 52.8807 47 51.5 47H4.5C3.11929 47 2 45.8807 2 44.5V11.5ZM4.5 10C3.67157 10 3 10.6716 3 11.5V44.5C3 45.3284 3.67157 46 4.5 46H51.5C52.3284 46 53 45.3284 53 44.5V11.5C53 10.6716 52.3284 10 51.5 10H4.5Z" fill="#1F204B"/>
<path fill-rule="evenodd" clip-rule="evenodd" d="M5 15H6V16H5V15ZM9 16H8V15H9V16ZM12 16H11V15H12V16ZM15 16H14V15H15V16ZM18 16H17V15H18V16ZM21 16H20V15H21V16ZM24 16H23V15H24V16ZM27 16H26V15H27V16ZM30 16H29V15H30V16ZM33 16H32V15H33V16ZM36 16H35V15H36V16ZM39 16H38V15H39V16ZM42 16H41V15H42V16ZM45 16H44V15H45V16ZM48 16H47V15H48V16ZM50 16V15H51V16H50ZM5 23H6V24H5V23ZM9 24H8V23H9V24ZM12 24H11V23H12V24ZM15 24H14V23H15V24ZM18 24H17V23H18V24ZM21 24H20V23H21V24ZM24 24H23V23H24V24ZM27 24H26V23H27V24ZM30 24H29V23H30V24ZM33 24H32V23H33V24ZM36 24H35V23H36V24ZM39 24H38V23H39V24ZM42 24H41V23H42V24ZM45 24H44V23H45V24ZM48 24H47V23H48V24ZM50 24V23H51V24H50ZM5 31H6V32H5V31ZM9 32H8V31H9V32ZM12 32H11V31H12V32ZM15 32H14V31H15V32ZM18 32H17V31H18V32ZM21 32H20V31H21V32ZM24 32H23V31H24V32ZM27 32H26V31H27V32ZM30 32H29V31H30V32ZM33 32H32V31H33V32ZM36 32H35V31H36V32ZM39 32H38V31H39V32ZM42 32H41V31H42V32ZM45 32H44V31H45V32ZM48 32H47V31H48V32ZM50 32V31H51V32H50ZM5 39H6V40H5V39ZM9 40H8V39H9V40ZM12 40H11V39H12V40ZM15 40H14V39H15V40ZM18 40H17V39H18V40ZM21 40H20V39H21V40ZM24 40H23V39H24V40ZM27 40H26V39H27V40ZM30 40H29V39H30V40ZM33 40H32V39H33V40ZM36 40H35V39H36V40ZM39 40H38V39H39V40ZM42 40H41V39H42V40ZM45 40H44V39H45V40ZM48 40H47V39H48V40ZM50 40V39H51V40H50Z" fill="#FFC54D"/>
<path d="M8.5 46.5V22.5C8.5 21.9477 8.94772 21.5 9.5 21.5H15.5C16.0523 21.5 16.5 21.9477 16.5 22.5V46.5H8.5Z" fill="#53CDE4"/>
<path fill-rule="evenodd" clip-rule="evenodd" d="M9.5 22C9.22386 22 9 22.2239 9 22.5V46H16V22.5C16 22.2239 15.7761 22 15.5 22H9.5ZM8 22.5C8 21.6716 8.67157 21 9.5 21H15.5C16.3284 21 17 21.6716 17 22.5V46.5C17 46.7761 16.7761 47 16.5 47H8.5C8.22386 47 8 46.7761 8 46.5V22.5Z" fill="#1F204B"/>
<path d="M31.5 46.5V33.5C31.5 32.9477 31.9477 32.5 32.5 32.5H38.5C39.0523 32.5 39.5 32.9477 39.5 33.5V46.5H31.5Z" fill="#53CDE4"/>
<path fill-rule="evenodd" clip-rule="evenodd" d="M32.5 33C32.2239 33 32 33.2239 32 33.5V46H39V33.5C39 33.2239 38.7761 33 38.5 33H32.5ZM31 33.5C31 32.6716 31.6716 32 32.5 32H38.5C39.3284 32 40 32.6716 40 33.5V46.5C40 46.7761 39.7761 47 39.5 47H31.5C31.2239 47 31 46.7761 31 46.5V33.5Z" fill="#1F204B"/>
<path d="M19.5 46.5V26.5C19.5 25.9477 19.9477 25.5 20.5 25.5H26.5C27.0523 25.5 27.5 25.9477 27.5 26.5V46.5H19.5Z" fill="#DC189C"/>
<path fill-rule="evenodd" clip-rule="evenodd" d="M20.5 26C20.2239 26 20 26.2239 20 26.5V46H27V26.5C27 26.2239 26.7761 26 26.5 26H20.5ZM19 26.5C19 25.6716 19.6716 25 20.5 25H26.5C27.3284 25 28 25.6716 28 26.5V46.5C28 46.7761 27.7761 47 27.5 47H19.5C19.2239 47 19 46.7761 19 46.5V26.5Z" fill="#1F204B"/>
<path d="M42.5 46.5V30.5C42.5 29.9477 42.9477 29.5 43.5 29.5H49.5C50.0523 29.5 50.5 29.9477 50.5 30.5V46.5H42.5Z" fill="#53CDE4"/>
<path fill-rule="evenodd" clip-rule="evenodd" d="M43.5 30C43.2239 30 43 30.2239 43 30.5V46H50V30.5C50 30.2239 49.7761 30 49.5 30H43.5ZM42 30.5C42 29.6716 42.6716 29 43.5 29H49.5C50.3284 29 51 29.6716 51 30.5V46.5C51 46.7761 50.7761 47 50.5 47H42.5C42.2239 47 42 46.7761 42 46.5V30.5Z" fill="#1F204B"/>
<path fill-rule="evenodd" clip-rule="evenodd" d="M50.5 16C15.8971 16 5.80217 33.86 4.9979 42.5461C4.97244 42.8211 4.7289 43.0233 4.45393 42.9979C4.17897 42.9724 3.9767 42.7289 4.00216 42.4539C4.86456 33.14 15.5029 15 50.5 15C50.7762 15 51 15.2239 51 15.5C51 15.7761 50.7762 16 50.5 16Z" fill="#1F204B"/>
</svg>
