<svg width="56" height="56" viewBox="0 0 56 56" fill="none" xmlns="http://www.w3.org/2000/svg">
<path d="M51.5 26.5C52.0523 26.5 52.5022 26.0511 52.4786 25.4994C51.9689 13.5928 42.4072 4.03109 30.5007 3.5214C29.9489 3.49778 29.5 3.94774 29.5 4.50002V25.5C29.5 26.0523 29.9477 26.5 30.5 26.5H51.5Z" fill="white"/>
<path d="M26.5 8.50002C26.5 7.39545 25.6015 6.49094 24.501 6.58568C12.7345 7.59872 3.5 17.471 3.5 29.5C3.5 42.2026 13.7975 52.5 26.5 52.5C38.5291 52.5 48.4013 43.2656 49.4143 31.499C49.5091 30.3985 48.6046 29.5 47.5 29.5H26.5V8.50002Z" fill="white"/>
<path fill-rule="evenodd" clip-rule="evenodd" d="M26 8.50005C26 7.65939 25.3241 7.0167 24.5439 7.08388C13.0337 8.07484 4 17.7328 4 29.5001C4 41.9265 14.0736 52.0001 26.5 52.0001C38.2673 52.0001 47.9252 42.9664 48.9162 31.4562C48.9834 30.6759 48.3407 30.0001 47.5 30.0001H26.5C26.2239 30.0001 26 29.7762 26 29.5001V8.50005ZM24.4581 6.08756C25.8789 5.96524 27 7.13158 27 8.50005V29.0001H47.5C48.8685 29.0001 50.0348 30.1212 49.9125 31.5419C48.8774 43.5648 38.7908 53.0001 26.5 53.0001C13.5213 53.0001 3 42.4787 3 29.5001C3 17.2092 12.4353 7.12266 24.4581 6.08756Z" fill="#1F204B"/>
<path fill-rule="evenodd" clip-rule="evenodd" d="M53 28C53.5523 28 54.0022 27.5511 53.9786 26.9994C53.4689 15.0928 43.9072 5.53109 32.0007 5.0214C31.4489 4.99778 31 5.44774 31 6.00002V27C31 27.5523 31.4477 28 32 28H53Z" fill="#DC189C"/>
<path fill-rule="evenodd" clip-rule="evenodd" d="M29 4.50005C29 3.67691 29.6725 2.98551 30.522 3.02188C42.6879 3.54267 52.4574 13.3121 52.9782 25.478C53.0145 26.3275 52.3231 27 51.5 27H30.5C29.6716 27 29 26.3285 29 25.5V4.50005ZM30.4793 4.02097C30.2253 4.01009 30 4.21861 30 4.50005V25.5C30 25.7762 30.2239 26 30.5 26H51.5C51.7814 26 51.99 25.7748 51.9791 25.5208C51.4805 13.8736 42.1265 4.51955 30.4793 4.02097Z" fill="#1F204B"/>
<path d="M26.5 8.50002C26.5 7.39545 25.6015 6.49094 24.501 6.58568C12.7345 7.59872 3.5 17.471 3.5 29.5C3.5 42.2026 13.7975 52.5 26.5 52.5V8.50002Z" fill="#FFC54D"/>
<path fill-rule="evenodd" clip-rule="evenodd" d="M26 8.50005C26 7.65939 25.3241 7.0167 24.5439 7.08388C13.0337 8.07484 4 17.7328 4 29.5001C4 41.7594 13.8045 51.7287 26 51.9946V8.50005ZM24.4581 6.08756C25.8789 5.96524 27 7.13158 27 8.50005V53.0001H26.5C13.5213 53.0001 3 42.4788 3 29.5001C3 17.2092 12.4353 7.12266 24.4581 6.08756Z" fill="#1F204B"/>
</svg>
