<svg width="56" height="56" viewBox="0 0 56 56" fill="none" xmlns="http://www.w3.org/2000/svg">
<path fill-rule="evenodd" clip-rule="evenodd" d="M23.5 16.5C23.5 17.0523 23.9477 17.5 24.5 17.5H32.5C33.0523 17.5 33.5 17.0523 33.5 16.5V12.5C33.5 11.9477 33.0523 11.5 32.5 11.5H24.5C23.9477 11.5 23.5 11.9477 23.5 12.5V16.5Z" fill="white"/>
<path fill-rule="evenodd" clip-rule="evenodd" d="M10.5 25.5C10.5 26.0523 10.9477 26.5 11.5 26.5H19.5C20.0523 26.5 20.5 26.0523 20.5 25.5V21.5C20.5 20.9477 20.0523 20.5 19.5 20.5H11.5C10.9477 20.5 10.5 20.9477 10.5 21.5V25.5Z" fill="white"/>
<path fill-rule="evenodd" clip-rule="evenodd" d="M12 27C12 27.5523 12.4477 28 13 28H21C21.5523 28 22 27.5523 22 27V23C22 22.4477 21.5523 22 21 22H13C12.4477 22 12 22.4477 12 23V27Z" fill="#53CDE4"/>
<path fill-rule="evenodd" clip-rule="evenodd" d="M25 18C25 18.5523 25.4477 19 26 19H34C34.5523 19 35 18.5523 35 18V14C35 13.4477 34.5523 13 34 13H26C25.4477 13 25 13.4477 25 14V18Z" fill="#53CDE4"/>
<path fill-rule="evenodd" clip-rule="evenodd" d="M23.5 25.5C23.5 26.0523 23.9477 26.5 24.5 26.5H32.5C33.0523 26.5 33.5 26.0523 33.5 25.5V21.5C33.5 20.9477 33.0523 20.5 32.5 20.5H24.5C23.9477 20.5 23.5 20.9477 23.5 21.5V25.5Z" fill="white"/>
<path fill-rule="evenodd" clip-rule="evenodd" d="M23 21.5C23 20.6716 23.6716 20 24.5 20H32.5C33.3284 20 34 20.6716 34 21.5V25.5C34 26.3284 33.3284 27 32.5 27H24.5C23.6716 27 23 26.3284 23 25.5V21.5ZM24.5 21C24.2239 21 24 21.2239 24 21.5V25.5C24 25.7761 24.2239 26 24.5 26H32.5C32.7761 26 33 25.7761 33 25.5V21.5C33 21.2239 32.7761 21 32.5 21H24.5Z" fill="#1F204B"/>
<path fill-rule="evenodd" clip-rule="evenodd" d="M23.5 34.5C23.5 35.0523 23.9477 35.5 24.5 35.5H32.5C33.0523 35.5 33.5 35.0523 33.5 34.5V30.5C33.5 29.9477 33.0523 29.5 32.5 29.5H24.5C23.9477 29.5 23.5 29.9477 23.5 30.5V34.5Z" fill="white"/>
<path fill-rule="evenodd" clip-rule="evenodd" d="M23 30.5C23 29.6716 23.6716 29 24.5 29H32.5C33.3284 29 34 29.6716 34 30.5V34.5C34 35.3284 33.3284 36 32.5 36H24.5C23.6716 36 23 35.3284 23 34.5V30.5ZM24.5 30C24.2239 30 24 30.2239 24 30.5V34.5C24 34.7761 24.2239 35 24.5 35H32.5C32.7761 35 33 34.7761 33 34.5V30.5C33 30.2239 32.7761 30 32.5 30H24.5Z" fill="#1F204B"/>
<path fill-rule="evenodd" clip-rule="evenodd" d="M23.5 43.5C23.5 44.0523 23.9477 44.5 24.5 44.5H32.5C33.0523 44.5 33.5 44.0523 33.5 43.5V39.5C33.5 38.9477 33.0523 38.5 32.5 38.5H24.5C23.9477 38.5 23.5 38.9477 23.5 39.5V43.5Z" fill="white"/>
<path fill-rule="evenodd" clip-rule="evenodd" d="M23 39.5C23 38.6716 23.6716 38 24.5 38H32.5C33.3284 38 34 38.6716 34 39.5V43.5C34 44.3284 33.3284 45 32.5 45H24.5C23.6716 45 23 44.3284 23 43.5V39.5ZM24.5 39C24.2239 39 24 39.2239 24 39.5V43.5C24 43.7761 24.2239 44 24.5 44H32.5C32.7761 44 33 43.7761 33 43.5V39.5C33 39.2239 32.7761 39 32.5 39H24.5Z" fill="#1F204B"/>
<path fill-rule="evenodd" clip-rule="evenodd" d="M36.5 25.5C36.5 26.0523 36.9477 26.5 37.5 26.5H45.5C46.0523 26.5 46.5 26.0523 46.5 25.5V21.5C46.5 20.9477 46.0523 20.5 45.5 20.5H37.5C36.9477 20.5 36.5 20.9477 36.5 21.5V25.5Z" fill="white"/>
<path fill-rule="evenodd" clip-rule="evenodd" d="M36 21.5C36 20.6716 36.6716 20 37.5 20H45.5C46.3284 20 47 20.6716 47 21.5V25.5C47 26.3284 46.3284 27 45.5 27H37.5C36.6716 27 36 26.3284 36 25.5V21.5ZM37.5 21C37.2239 21 37 21.2239 37 21.5V25.5C37 25.7761 37.2239 26 37.5 26H45.5C45.7761 26 46 25.7761 46 25.5V21.5C46 21.2239 45.7761 21 45.5 21H37.5Z" fill="#1F204B"/>
<path fill-rule="evenodd" clip-rule="evenodd" d="M23 12.5C23 11.6716 23.6716 11 24.5 11H32.5C33.3284 11 34 11.6716 34 12.5V16.5C34 17.3284 33.3284 18 32.5 18H24.5C23.6716 18 23 17.3284 23 16.5V12.5ZM24.5 12C24.2239 12 24 12.2239 24 12.5V16.5C24 16.7761 24.2239 17 24.5 17H32.5C32.7761 17 33 16.7761 33 16.5V12.5C33 12.2239 32.7761 12 32.5 12H24.5Z" fill="#1F204B"/>
<path fill-rule="evenodd" clip-rule="evenodd" d="M36.5 17.5H46.501V11.501H36.5V17.5Z" fill="#FFC54D"/>
<path fill-rule="evenodd" clip-rule="evenodd" d="M36 12.5C36 11.6716 36.6716 11 37.5 11H45.5C46.3284 11 47 11.6716 47 12.5V16.5C47 17.3284 46.3284 18 45.5 18H37.5C36.6716 18 36 17.3284 36 16.5V12.5ZM37.5 12C37.2239 12 37 12.2239 37 12.5V16.5C37 16.7761 37.2239 17 37.5 17H45.5C45.7761 17 46 16.7761 46 16.5V12.5C46 12.2239 45.7761 12 45.5 12H37.5Z" fill="#1F204B"/>
<path fill-rule="evenodd" clip-rule="evenodd" d="M36.5 34.5C36.5 35.0523 36.9477 35.5 37.5 35.5H45.5C46.0523 35.5 46.5 35.0523 46.5 34.5V30.5C46.5 29.9477 46.0523 29.5 45.5 29.5H37.5C36.9477 29.5 36.5 29.9477 36.5 30.5V34.5Z" fill="white"/>
<path fill-rule="evenodd" clip-rule="evenodd" d="M36 30.5C36 29.6716 36.6716 29 37.5 29H45.5C46.3284 29 47 29.6716 47 30.5V34.5C47 35.3284 46.3284 36 45.5 36H37.5C36.6716 36 36 35.3284 36 34.5V30.5ZM37.5 30C37.2239 30 37 30.2239 37 30.5V34.5C37 34.7761 37.2239 35 37.5 35H45.5C45.7761 35 46 34.7761 46 34.5V30.5C46 30.2239 45.7761 30 45.5 30H37.5Z" fill="#1F204B"/>
<path fill-rule="evenodd" clip-rule="evenodd" d="M36.5 43.5C36.5 44.0523 36.9477 44.5 37.5 44.5H45.5C46.0523 44.5 46.5 44.0523 46.5 43.5V39.5C46.5 38.9477 46.0523 38.5 45.5 38.5H37.5C36.9477 38.5 36.5 38.9477 36.5 39.5V43.5Z" fill="white"/>
<path fill-rule="evenodd" clip-rule="evenodd" d="M36 39.5C36 38.6716 36.6716 38 37.5 38H45.5C46.3284 38 47 38.6716 47 39.5V43.5C47 44.3284 46.3284 45 45.5 45H37.5C36.6716 45 36 44.3284 36 43.5V39.5ZM37.5 39C37.2239 39 37 39.2239 37 39.5V43.5C37 43.7761 37.2239 44 37.5 44H45.5C45.7761 44 46 43.7761 46 43.5V39.5C46 39.2239 45.7761 39 45.5 39H37.5Z" fill="#1F204B"/>
<path fill-rule="evenodd" clip-rule="evenodd" d="M10.5 35.5H20.5V29.501H10.5V35.5Z" fill="#FFC54D"/>
<path fill-rule="evenodd" clip-rule="evenodd" d="M10.5 44.5H20.5V38.501H10.5V44.5Z" fill="#FFC54D"/>
<path fill-rule="evenodd" clip-rule="evenodd" d="M10 21.5C10 20.6716 10.6716 20 11.5 20H19.5C20.3284 20 21 20.6716 21 21.5V25.5C21 26.3284 20.3284 27 19.5 27H11.5C10.6716 27 10 26.3284 10 25.5V21.5ZM11.5 21C11.2239 21 11 21.2239 11 21.5V25.5C11 25.7761 11.2239 26 11.5 26H19.5C19.7761 26 20 25.7761 20 25.5V21.5C20 21.2239 19.7761 21 19.5 21H11.5Z" fill="#1F204B"/>
<path fill-rule="evenodd" clip-rule="evenodd" d="M10 30.5C10 29.6716 10.6716 29 11.5 29H19.5C20.3284 29 21 29.6716 21 30.5V34.5C21 35.3284 20.3284 36 19.5 36H11.5C10.6716 36 10 35.3284 10 34.5V30.5ZM11.5 30C11.2239 30 11 30.2239 11 30.5V34.5C11 34.7761 11.2239 35 11.5 35H19.5C19.7761 35 20 34.7761 20 34.5V30.5C20 30.2239 19.7761 30 19.5 30H11.5Z" fill="#1F204B"/>
<path fill-rule="evenodd" clip-rule="evenodd" d="M10 39.5C10 38.6716 10.6716 38 11.5 38H19.5C20.3284 38 21 38.6716 21 39.5V43.5C21 44.3284 20.3284 45 19.5 45H11.5C10.6716 45 10 44.3284 10 43.5V39.5ZM11.5 39C11.2239 39 11 39.2239 11 39.5V43.5C11 43.7761 11.2239 44 11.5 44H19.5C19.7761 44 20 43.7761 20 43.5V39.5C20 39.2239 19.7761 39 19.5 39H11.5Z" fill="#1F204B"/>
</svg>
