<svg width="56" height="56" viewBox="0 0 56 56" fill="none" xmlns="http://www.w3.org/2000/svg">
<path d="M27.1458 10.4033C27.5354 9.7632 28.4646 9.7632 28.8542 10.4033L48.0748 41.98C48.4805 42.6464 48.0008 43.4999 47.2206 43.4999H8.7794C7.99926 43.4999 7.51956 42.6464 7.9252 41.98L27.1458 10.4033Z" fill="white"/>
<path d="M8.81515 43.5181L13.2152 35.5181C13.3909 35.1985 13.7267 35 14.0914 35H44.9088C45.2735 35 45.6093 35.1985 45.785 35.5181L50.185 43.5181C50.5516 44.1845 50.0694 45 49.3088 45H9.69137C8.93076 45 8.4486 44.1845 8.81515 43.5181Z" fill="#53CDE4"/>
<path d="M13 34L18.5 25H37.5L43 34H13Z" fill="#FFC54D"/>
<path fill-rule="evenodd" clip-rule="evenodd" d="M26.7188 10.1433C27.3032 9.18319 28.6969 9.18319 29.2814 10.1433L48.502 41.72C49.1104 42.7196 48.3909 43.9999 47.2207 43.9999H8.77945C7.60924 43.9999 6.8897 42.7196 7.49815 41.72L26.7188 10.1433ZM28.4272 10.6632C28.2324 10.3432 27.7678 10.3432 27.573 10.6632L8.35235 42.24C8.14953 42.5732 8.38937 42.9999 8.77945 42.9999H47.2207C47.6107 42.9999 47.8506 42.5732 47.6478 42.24L28.4272 10.6632Z" fill="#1F204B"/>
<path fill-rule="evenodd" clip-rule="evenodd" d="M22.5 18C22.5 17.7239 22.7239 17.5 23 17.5H33C33.2761 17.5 33.5 17.7239 33.5 18C33.5 18.2761 33.2761 18.5 33 18.5H23C22.7239 18.5 22.5 18.2761 22.5 18Z" fill="#1F204B"/>
<path fill-rule="evenodd" clip-rule="evenodd" d="M18 25.5C18 25.2239 18.2239 25 18.5 25L37.5 25C37.7761 25 38 25.2239 38 25.5C38 25.7761 37.7761 26 37.5 26L18.5 26C18.2239 26 18 25.7761 18 25.5Z" fill="#1F204B"/>
<path fill-rule="evenodd" clip-rule="evenodd" d="M13 33.5C13 33.2239 13.2239 33 13.5 33L42.5 33C42.7761 33 43 33.2239 43 33.5C43 33.7761 42.7761 34 42.5 34L13.5 34C13.2239 34 13 33.7761 13 33.5Z" fill="#1F204B"/>
</svg>
