<svg width="56" height="56" viewBox="0 0 56 56" fill="none" xmlns="http://www.w3.org/2000/svg">
<path fill-rule="evenodd" clip-rule="evenodd" d="M25.3477 26.3872L22.6467 16.7392C24.5187 16.2582 26.4797 16.0002 28.4997 16.0002C31.6517 16.0002 34.6597 16.6262 37.4087 17.7562L33.4167 26.9362C31.8917 26.3372 30.2357 26.0002 28.4997 26.0002C27.4127 26.0002 26.3607 26.1432 25.3477 26.3872Z" fill="white"/>
<path fill-rule="evenodd" clip-rule="evenodd" d="M5.00562 39.0002C5.01762 38.4172 5.05762 37.8402 5.11262 37.2662C5.12062 37.1802 5.12862 37.0932 5.13762 37.0062C5.79962 30.8502 8.87761 25.2752 13.5146 21.4172C13.5406 21.3952 13.5656 21.3722 13.5916 21.3512C14.0156 21.0012 14.4556 20.6692 14.9056 20.3482C14.9896 20.2882 15.0736 20.2302 15.1586 20.1712C15.6036 19.8622 16.0576 19.5652 16.5256 19.2872C16.5766 19.2572 16.6296 19.2292 16.6806 19.1992C17.1236 18.9402 17.5766 18.6972 18.0386 18.4662C18.1186 18.4272 18.1966 18.3852 18.2766 18.3462C18.7716 18.1062 19.2776 17.8842 19.7926 17.6782C19.8736 17.6462 19.9546 17.6152 20.0356 17.5832C20.5756 17.3742 21.1236 17.1802 21.6836 17.0112L24.3826 26.6502C23.7306 26.8602 23.1016 27.1202 22.4966 27.4222C22.4756 27.4332 22.4526 27.4422 22.4316 27.4532C22.1826 27.5792 21.9416 27.7162 21.7016 27.8572C21.6136 27.9082 21.5246 27.9602 21.4376 28.0132C21.2126 28.1522 20.9936 28.2962 20.7786 28.4472C20.6916 28.5082 20.6076 28.5712 20.5226 28.6332C20.3046 28.7942 20.0876 28.9572 19.8796 29.1302C19.8466 29.1582 19.8156 29.1872 19.7836 29.2162C19.0646 29.8252 18.4136 30.5082 17.8366 31.2542C17.7976 31.3042 17.7566 31.3532 17.7186 31.4052C17.5456 31.6352 17.3806 31.8702 17.2226 32.1112C17.1816 32.1732 17.1436 32.2352 17.1036 32.2972C16.9466 32.5452 16.7936 32.7962 16.6526 33.0542C16.6416 33.0752 16.6316 33.0962 16.6206 33.1172C16.3166 33.6812 16.0496 34.2672 15.8266 34.8762C15.8196 34.8952 15.8106 34.9152 15.8036 34.9342C15.7236 35.1552 15.6566 35.3792 15.5886 35.6042C15.5396 35.7632 15.4926 35.9232 15.4496 36.0842C15.3986 36.2782 15.3526 36.4732 15.3096 36.6702C15.2636 36.8882 15.2236 37.1082 15.1866 37.3282C15.1606 37.4892 15.1316 37.6482 15.1116 37.8102C15.0616 38.2032 15.0246 38.5992 15.0096 39.0002H5.00562Z" fill="white"/>
<path fill-rule="evenodd" clip-rule="evenodd" d="M24.5107 17.2544C24.4363 16.9888 24.1606 16.8338 23.895 16.9084C13.358 19.8534 6 29.5543 6 40.5003C6 40.7765 6.22386 41.0003 6.5 41.0003H17.5C17.7761 41.0003 18 40.7765 18 40.5003C18 34.9213 21.755 29.9754 27.132 28.4724C27.3982 28.3978 27.5536 28.1216 27.479 27.8553L24.5107 17.2544Z" fill="#FFC54D"/>
<path fill-rule="evenodd" clip-rule="evenodd" d="M33.5 27.4994C38.197 29.4584 41.743 34.2074 41.743 39.6144L52.51 39.6534C52.51 29.7954 46.508 21.6754 38.008 17.9814L33.5 27.4994Z" fill="#DC189C"/>
<path fill-rule="evenodd" clip-rule="evenodd" d="M28.4999 16C15.8496 16 5.53371 25.9958 5.01995 38.5196C5.00949 38.7747 5.21884 39 5.49988 39H14.4999C14.7666 39 15.0153 38.7769 15.0392 38.4621C15.5695 31.491 21.3932 26 28.4999 26C35.6065 26 41.4303 31.491 41.9606 38.4621C41.9845 38.7769 42.2332 39 42.4999 39H51.4999C51.7809 39 51.9903 38.7747 51.9798 38.5196C51.466 25.9958 41.1502 16 28.4999 16ZM4.02079 38.4786C4.55645 25.4211 15.311 15 28.4999 15C41.6887 15 52.4433 25.4211 52.979 38.4786C53.0138 39.3271 52.3234 40 51.4999 40H42.4999C41.662 40 41.0233 39.3246 40.9634 38.5379C40.4725 32.0842 35.0797 27 28.4999 27C21.9201 27 16.5273 32.0842 16.0363 38.5379C15.9765 39.3246 15.3377 40 14.4999 40H5.49988C4.67635 40 3.98598 39.3271 4.02079 38.4786Z" fill="#1F204B"/>
<path fill-rule="evenodd" clip-rule="evenodd" d="M38.2053 17.044C38.4571 17.1574 38.5694 17.4534 38.4561 17.7052L33.9561 27.7052C33.8428 27.957 33.5468 28.0693 33.2949 27.956C33.0431 27.8426 32.9308 27.5466 33.0442 27.2948L37.5442 17.2948C37.6575 17.043 37.9535 16.9307 38.2053 17.044Z" fill="#1F204B"/>
<path fill-rule="evenodd" clip-rule="evenodd" d="M21.8625 16.0192C22.128 15.9434 22.4048 16.0971 22.4806 16.3626L25.4806 26.8626C25.5565 27.1282 25.4028 27.4049 25.1372 27.4808C24.8717 27.5566 24.595 27.4029 24.5191 27.1374L21.5191 16.6374C21.4433 16.3718 21.597 16.0951 21.8625 16.0192Z" fill="#1F204B"/>
</svg>
