<svg width="56" height="56" viewBox="0 0 56 56" fill="none" xmlns="http://www.w3.org/2000/svg">
<path d="M50.5 28C50.5 40.4264 40.4264 50.5 28 50.5C15.5736 50.5 5.5 40.4264 5.5 28C5.5 15.5736 15.5736 5.5 28 5.5C40.4264 5.5 50.5 15.5736 50.5 28Z" fill="white"/>
<path fill-rule="evenodd" clip-rule="evenodd" d="M28 5C15.298 5 5 15.297 5 28C5 40.703 15.298 51 28 51C40.702 51 51 40.703 51 28C51 15.297 40.702 5 28 5ZM28 8C39.028 8 48 16.972 48 28C48 39.028 39.028 48 28 48C16.972 48 8 39.028 8 28C8 16.972 16.972 8 28 8Z" fill="#53CDE4"/>
<path fill-rule="evenodd" clip-rule="evenodd" d="M23.1425 29.703V26.246C23.1425 25.358 23.2145 23.967 23.2625 23.078H23.1655C22.7825 23.87 22.3505 24.639 21.9175 25.454L19.1335 29.703H23.1425ZM27.6555 31.839H25.7345V35.775H23.1425V31.839H16.3975V29.967L22.4465 20.51H25.7345V29.703H27.6555V31.839Z" fill="#1F204B"/>
<path fill-rule="evenodd" clip-rule="evenodd" d="M28.6346 34.1669C32.8826 30.0629 35.5466 27.3749 35.5466 25.0469C35.5466 23.4379 34.6586 22.4059 33.0276 22.4059C31.8506 22.4059 30.8666 23.1979 30.0506 24.1099L28.5146 22.5739C29.9066 21.0859 31.2986 20.2219 33.3866 20.2219C36.3156 20.2219 38.2116 22.0699 38.2116 24.9019C38.2116 27.6139 35.6916 30.3979 32.6666 33.5909C33.4586 33.5199 34.4666 33.4229 35.2106 33.4229H38.9556V35.7749H28.6346V34.1669Z" fill="#1F204B"/>
<path fill-rule="evenodd" clip-rule="evenodd" d="M28 6C15.8497 6 6 15.8497 6 28C6 40.1503 15.8497 50 28 50C40.1503 50 50 40.1503 50 28C50 15.8497 40.1503 6 28 6ZM5 28C5 15.2975 15.2975 5 28 5C40.7025 5 51 15.2975 51 28C51 40.7025 40.7025 51 28 51C15.2975 51 5 40.7025 5 28Z" fill="#1F204B"/>
</svg>
