<svg width="56" height="56" viewBox="0 0 56 56" fill="none" xmlns="http://www.w3.org/2000/svg">
<path d="M28.5001 15.5C15.5805 15.5 5.0453 25.7084 4.52059 38.4991C4.49796 39.0509 4.94782 39.5 5.5001 39.5H14.5001C15.0524 39.5 15.4961 39.0507 15.538 38.5C16.0486 31.7876 21.6569 26.5 28.5001 26.5C35.3433 26.5 40.9516 31.7876 41.4622 38.5C41.5041 39.0507 41.9478 39.5 42.5001 39.5H51.5001C52.0524 39.5 52.5022 39.0509 52.4796 38.4991C51.9549 25.7084 41.4197 15.5 28.5001 15.5Z" fill="white"/>
<path d="M6.49994 41C5.94766 41 5.49781 40.5521 5.52034 40.0002C5.69593 35.7002 7.00164 31.5158 9.31391 27.8723C11.805 23.9468 15.3617 20.8113 19.5683 18.8318C23.775 16.8522 28.4581 16.1105 33.0706 16.6932C37.3519 17.2341 41.4083 18.8952 44.8335 21.5009C45.273 21.8353 45.3314 22.4674 44.9794 22.893L39.2267 29.8468C38.8746 30.2724 38.2462 30.3286 37.7958 30.0091C35.991 28.729 33.8942 27.9099 31.6888 27.6313C29.1519 27.3108 26.5762 27.7187 24.2626 28.8075C21.9489 29.8962 19.9928 31.6208 18.6226 33.7797C17.4315 35.6566 16.7261 37.7944 16.562 40.0009C16.5211 40.5517 16.0772 41 15.5249 41H6.49994Z" fill="#DC189C"/>
<path fill-rule="evenodd" clip-rule="evenodd" d="M28.4999 16C15.8496 16 5.53371 25.9958 5.01995 38.5196C5.00949 38.7747 5.21884 39 5.49988 39H14.4999C14.7666 39 15.0153 38.7769 15.0392 38.4621C15.5695 31.491 21.3932 26 28.4999 26C35.6065 26 41.4303 31.491 41.9606 38.4621C41.9845 38.7769 42.2332 39 42.4999 39H51.4999C51.7809 39 51.9903 38.7747 51.9798 38.5196C51.466 25.9958 41.1502 16 28.4999 16ZM4.02079 38.4786C4.55645 25.4211 15.311 15 28.4999 15C41.6887 15 52.4433 25.4211 52.979 38.4786C53.0138 39.3271 52.3234 40 51.4999 40H42.4999C41.662 40 41.0233 39.3246 40.9634 38.5379C40.4725 32.0842 35.0797 27 28.4999 27C21.9201 27 16.5273 32.0842 16.0363 38.5379C15.9765 39.3246 15.3377 40 14.4999 40H5.49988C4.67635 40 3.98598 39.3271 4.02079 38.4786Z" fill="#1F204B"/>
<path fill-rule="evenodd" clip-rule="evenodd" d="M44.5338 21.8893L37.1733 30.0639L36.4302 29.3948L43.7906 21.2202L44.5338 21.8893Z" fill="#1F204B"/>
<path d="M6.5 42.5C6.5 41.9477 6.94772 41.5 7.5 41.5H9.5C10.0523 41.5 10.5 41.9477 10.5 42.5V43.5C10.5 44.0523 10.0523 44.5 9.5 44.5H7.5C6.94772 44.5 6.5 44.0523 6.5 43.5V42.5Z" fill="#53CDE4"/>
<path fill-rule="evenodd" clip-rule="evenodd" d="M6 42.5C6 41.6716 6.67157 41 7.5 41H9.5C10.3284 41 11 41.6716 11 42.5V43.5C11 44.3284 10.3284 45 9.5 45H7.5C6.67157 45 6 44.3284 6 43.5V42.5ZM7.5 42C7.22386 42 7 42.2239 7 42.5V43.5C7 43.7761 7.22386 44 7.5 44H9.5C9.77614 44 10 43.7761 10 43.5V42.5C10 42.2239 9.77614 42 9.5 42H7.5Z" fill="#1F204B"/>
<path d="M25.5 36.5C25.5 35.9477 25.9477 35.5 26.5 35.5H31C31.5523 35.5 32 35.9477 32 36.5V38.5C32 39.0523 31.5523 39.5 31 39.5H26.5C25.9477 39.5 25.5 39.0523 25.5 38.5V36.5Z" fill="#FFC54D"/>
<path fill-rule="evenodd" clip-rule="evenodd" d="M25 36.5C25 35.6716 25.6716 35 26.5 35H31C31.8284 35 32.5 35.6716 32.5 36.5V38.5C32.5 39.3284 31.8284 40 31 40H26.5C25.6716 40 25 39.3284 25 38.5V36.5ZM26.5 36C26.2239 36 26 36.2239 26 36.5V38.5C26 38.7761 26.2239 39 26.5 39H31C31.2761 39 31.5 38.7761 31.5 38.5V36.5C31.5 36.2239 31.2761 36 31 36H26.5Z" fill="#1F204B"/>
<path d="M46.5 42.5C46.5 41.9477 46.9477 41.5 47.5 41.5H49.5C50.0523 41.5 50.5 41.9477 50.5 42.5V43.5C50.5 44.0523 50.0523 44.5 49.5 44.5H47.5C46.9477 44.5 46.5 44.0523 46.5 43.5V42.5Z" fill="#53CDE4"/>
<path fill-rule="evenodd" clip-rule="evenodd" d="M46 42.5C46 41.6716 46.6716 41 47.5 41H49.5C50.3284 41 51 41.6716 51 42.5V43.5C51 44.3284 50.3284 45 49.5 45H47.5C46.6716 45 46 44.3284 46 43.5V42.5ZM47.5 42C47.2239 42 47 42.2239 47 42.5V43.5C47 43.7761 47.2239 44 47.5 44H49.5C49.7761 44 50 43.7761 50 43.5V42.5C50 42.2239 49.7761 42 49.5 42H47.5Z" fill="#1F204B"/>
</svg>
