<svg width="56" height="56" viewBox="0 0 56 56" fill="none" xmlns="http://www.w3.org/2000/svg">
<path fill-rule="evenodd" clip-rule="evenodd" d="M2.5 44.5C2.5 45.6046 3.39543 46.5 4.5 46.5H51.5C52.6046 46.5 53.5 45.6046 53.5 44.5V11.5C53.5 10.3954 52.6046 9.5 51.5 9.5H4.5C3.39543 9.5 2.5 10.3954 2.5 11.5V44.5Z" fill="white"/>
<path fill-rule="evenodd" clip-rule="evenodd" d="M2 11.5C2 10.1193 3.11929 9 4.5 9H51.5C52.8807 9 54 10.1193 54 11.5V44.5C54 45.8807 52.8807 47 51.5 47H4.5C3.11929 47 2 45.8807 2 44.5V11.5ZM4.5 10C3.67157 10 3 10.6716 3 11.5V44.5C3 45.3284 3.67157 46 4.5 46H51.5C52.3284 46 53 45.3284 53 44.5V11.5C53 10.6716 52.3284 10 51.5 10H4.5Z" fill="#1F204B"/>
<path fill-rule="evenodd" clip-rule="evenodd" d="M5 15H6V16H5V15ZM9 16H8V15H9V16ZM12 16H11V15H12V16ZM15 16H14V15H15V16ZM18 16H17V15H18V16ZM21 16H20V15H21V16ZM24 16H23V15H24V16ZM27 16H26V15H27V16ZM30 16H29V15H30V16ZM33 16H32V15H33V16ZM36 16H35V15H36V16ZM39 16H38V15H39V16ZM42 16H41V15H42V16ZM45 16H44V15H45V16ZM48 16H47V15H48V16ZM50 16V15H51V16H50ZM5 23H6V24H5V23ZM9 24H8V23H9V24ZM12 24H11V23H12V24ZM15 24H14V23H15V24ZM18 24H17V23H18V24ZM21 24H20V23H21V24ZM24 24H23V23H24V24ZM27 24H26V23H27V24ZM30 24H29V23H30V24ZM33 24H32V23H33V24ZM36 24H35V23H36V24ZM39 24H38V23H39V24ZM42 24H41V23H42V24ZM45 24H44V23H45V24ZM48 24H47V23H48V24ZM50 24V23H51V24H50ZM5 31H6V32H5V31ZM9 32H8V31H9V32ZM12 32H11V31H12V32ZM15 32H14V31H15V32ZM18 32H17V31H18V32ZM21 32H20V31H21V32ZM24 32H23V31H24V32ZM27 32H26V31H27V32ZM30 32H29V31H30V32ZM33 32H32V31H33V32ZM36 32H35V31H36V32ZM39 32H38V31H39V32ZM42 32H41V31H42V32ZM45 32H44V31H45V32ZM48 32H47V31H48V32ZM50 32V31H51V32H50ZM5 39H6V40H5V39ZM9 40H8V39H9V40ZM12 40H11V39H12V40ZM15 40H14V39H15V40ZM18 40H17V39H18V40ZM21 40H20V39H21V40ZM24 40H23V39H24V40ZM27 40H26V39H27V40ZM30 40H29V39H30V40ZM33 40H32V39H33V40ZM36 40H35V39H36V40ZM39 40H38V39H39V40ZM42 40H41V39H42V40ZM45 40H44V39H45V40ZM48 40H47V39H48V40ZM50 40V39H51V40H50Z" fill="#FFC54D"/>
<path fill-rule="evenodd" clip-rule="evenodd" d="M47.6739 23.8272C47.9053 23.9779 47.9707 24.2876 47.82 24.519C47.049 25.703 45.938 27.3317 44.7034 28.9002C43.4747 30.4612 42.0996 31.9938 40.7982 32.9605C40.5765 33.1252 40.2633 33.079 40.0987 32.8573C39.934 32.6357 39.9802 32.3225 40.2019 32.1578C41.3935 31.2726 42.7024 29.8256 43.9176 28.2817C45.1271 26.7451 46.2201 25.1433 46.982 23.9733C47.1327 23.7419 47.4425 23.6765 47.6739 23.8272Z" fill="#1F204B"/>
<path fill-rule="evenodd" clip-rule="evenodd" d="M29.9664 27.237C30.1365 27.0195 30.4507 26.981 30.6683 27.151C31.5001 27.8012 32.3725 28.6534 33.2299 29.491C33.4087 29.6657 33.5869 29.8398 33.764 30.0113C34.8098 31.0242 35.816 31.9474 36.7545 32.5014C36.9923 32.6417 37.0713 32.9483 36.931 33.1861C36.7906 33.4239 36.484 33.5029 36.2462 33.3625C35.1908 32.7395 34.1049 31.7337 33.0683 30.7296C32.8828 30.55 32.6989 30.3704 32.5165 30.1923C31.6595 29.3554 30.8364 28.5517 30.0524 27.9389C29.8349 27.7688 29.7964 27.4546 29.9664 27.237Z" fill="#1F204B"/>
<path fill-rule="evenodd" clip-rule="evenodd" d="M26.81 26.397C26.8498 26.6702 26.6606 26.924 26.3873 26.9638C24.5729 27.2283 22.3397 28.071 20.59 28.9226C20.3417 29.0435 20.0425 28.9402 19.9216 28.6919C19.8008 28.4436 19.9041 28.1443 20.1524 28.0235C21.9447 27.1511 24.2835 26.2599 26.2431 25.9743C26.5164 25.9345 26.7702 26.1237 26.81 26.397Z" fill="#1F204B"/>
<path fill-rule="evenodd" clip-rule="evenodd" d="M17.1415 30.3235C17.2819 30.5613 17.203 30.8678 16.9652 31.0083L16.9185 31.0358C14.5785 32.4177 11.5002 34.2354 9.90274 35.8999C9.71153 36.0992 9.39502 36.1057 9.19578 35.9145C8.99655 35.7233 8.99004 35.4067 9.18125 35.2075C10.875 33.4426 14.0419 31.5729 16.3277 30.2233C16.3711 30.1978 16.4141 30.1724 16.4568 30.1472C16.6945 30.0068 17.0011 30.0857 17.1415 30.3235Z" fill="#1F204B"/>
<path fill-rule="evenodd" clip-rule="evenodd" d="M10.5 37.5C10.5 38.604 9.604 39.5 8.5 39.5C7.396 39.5 6.5 38.604 6.5 37.5C6.5 36.396 7.396 35.5 8.5 35.5C9.604 35.5 10.5 36.396 10.5 37.5Z" fill="#53CDE4"/>
<path fill-rule="evenodd" clip-rule="evenodd" d="M8.5 36C7.67214 36 7 36.6721 7 37.5C7 38.3279 7.67214 39 8.5 39C9.32786 39 10 38.3279 10 37.5C10 36.6721 9.32786 36 8.5 36ZM6 37.5C6 36.1199 7.11986 35 8.5 35C9.88014 35 11 36.1199 11 37.5C11 38.8801 9.88014 40 8.5 40C7.11986 40 6 38.8801 6 37.5Z" fill="#1F204B"/>
<path fill-rule="evenodd" clip-rule="evenodd" d="M20.5 29.5C20.5 30.604 19.604 31.5 18.5 31.5C17.396 31.5 16.5 30.604 16.5 29.5C16.5 28.396 17.396 27.5 18.5 27.5C19.604 27.5 20.5 28.396 20.5 29.5Z" fill="#53CDE4"/>
<path fill-rule="evenodd" clip-rule="evenodd" d="M18.5 28C17.6721 28 17 28.6721 17 29.5C17 30.3279 17.6721 31 18.5 31C19.3279 31 20 30.3279 20 29.5C20 28.6721 19.3279 28 18.5 28ZM16 29.5C16 28.1199 17.1199 27 18.5 27C19.8801 27 21 28.1199 21 29.5C21 30.8801 19.8801 32 18.5 32C17.1199 32 16 30.8801 16 29.5Z" fill="#1F204B"/>
<path fill-rule="evenodd" clip-rule="evenodd" d="M30.5 26.5C30.5 27.604 29.604 28.5 28.5 28.5C27.396 28.5 26.5 27.604 26.5 26.5C26.5 25.396 27.396 24.5 28.5 24.5C29.604 24.5 30.5 25.396 30.5 26.5Z" fill="#53CDE4"/>
<path fill-rule="evenodd" clip-rule="evenodd" d="M28.5 25C27.6721 25 27 25.6721 27 26.5C27 27.3279 27.6721 28 28.5 28C29.3279 28 30 27.3279 30 26.5C30 25.6721 29.3279 25 28.5 25ZM26 26.5C26 25.1199 27.1199 24 28.5 24C29.8801 24 31 25.1199 31 26.5C31 27.8801 29.8801 29 28.5 29C27.1199 29 26 27.8801 26 26.5Z" fill="#1F204B"/>
<path fill-rule="evenodd" clip-rule="evenodd" d="M40.5 33.5C40.5 34.604 39.604 35.5 38.5 35.5C37.396 35.5 36.5 34.604 36.5 33.5C36.5 32.396 37.396 31.5 38.5 31.5C39.604 31.5 40.5 32.396 40.5 33.5Z" fill="#53CDE4"/>
<path fill-rule="evenodd" clip-rule="evenodd" d="M38.5 32C37.6721 32 37 32.6721 37 33.5C37 34.3279 37.6721 35 38.5 35C39.3279 35 40 34.3279 40 33.5C40 32.6721 39.3279 32 38.5 32ZM36 33.5C36 32.1199 37.1199 31 38.5 31C39.8801 31 41 32.1199 41 33.5C41 34.8801 39.8801 36 38.5 36C37.1199 36 36 34.8801 36 33.5Z" fill="#1F204B"/>
<path fill-rule="evenodd" clip-rule="evenodd" d="M50.5 22.5C50.5 23.604 49.604 24.5 48.5 24.5C47.396 24.5 46.5 23.604 46.5 22.5C46.5 21.396 47.396 20.5 48.5 20.5C49.604 20.5 50.5 21.396 50.5 22.5Z" fill="#53CDE4"/>
<path fill-rule="evenodd" clip-rule="evenodd" d="M48.5 21C47.6721 21 47 21.6721 47 22.5C47 23.3279 47.6721 24 48.5 24C49.3279 24 50 23.3279 50 22.5C50 21.6721 49.3279 21 48.5 21ZM46 22.5C46 21.1199 47.1199 20 48.5 20C49.8801 20 51 21.1199 51 22.5C51 23.8801 49.8801 25 48.5 25C47.1199 25 46 23.8801 46 22.5Z" fill="#1F204B"/>
</svg>
