<svg width="56" height="56" viewBox="0 0 56 56" fill="none" xmlns="http://www.w3.org/2000/svg">
<path fill-rule="evenodd" clip-rule="evenodd" d="M2.5 44.5C2.5 45.6046 3.39543 46.5 4.5 46.5H51.5C52.6046 46.5 53.5 45.6046 53.5 44.5V11.5C53.5 10.3954 52.6046 9.5 51.5 9.5H4.5C3.39543 9.5 2.5 10.3954 2.5 11.5V44.5Z" fill="white"/>
<path fill-rule="evenodd" clip-rule="evenodd" d="M2 11.5C2 10.1193 3.11929 9 4.5 9H51.5C52.8807 9 54 10.1193 54 11.5V44.5C54 45.8807 52.8807 47 51.5 47H4.5C3.11929 47 2 45.8807 2 44.5V11.5ZM4.5 10C3.67157 10 3 10.6716 3 11.5V44.5C3 45.3284 3.67157 46 4.5 46H51.5C52.3284 46 53 45.3284 53 44.5V11.5C53 10.6716 52.3284 10 51.5 10H4.5Z" fill="#1F204B"/>
<path fill-rule="evenodd" clip-rule="evenodd" d="M5 15H6V16H5V15ZM9 16H8V15H9V16ZM12 16H11V15H12V16ZM15 16H14V15H15V16ZM18 16H17V15H18V16ZM21 16H20V15H21V16ZM24 16H23V15H24V16ZM27 16H26V15H27V16ZM30 16H29V15H30V16ZM33 16H32V15H33V16ZM36 16H35V15H36V16ZM39 16H38V15H39V16ZM42 16H41V15H42V16ZM45 16H44V15H45V16ZM48 16H47V15H48V16ZM50 16V15H51V16H50ZM5 23H6V24H5V23ZM9 24H8V23H9V24ZM12 24H11V23H12V24ZM15 24H14V23H15V24ZM18 24H17V23H18V24ZM21 24H20V23H21V24ZM24 24H23V23H24V24ZM27 24H26V23H27V24ZM30 24H29V23H30V24ZM33 24H32V23H33V24ZM36 24H35V23H36V24ZM39 24H38V23H39V24ZM42 24H41V23H42V24ZM45 24H44V23H45V24ZM48 24H47V23H48V24ZM50 24V23H51V24H50ZM5 31H6V32H5V31ZM9 32H8V31H9V32ZM12 32H11V31H12V32ZM15 32H14V31H15V32ZM18 32H17V31H18V32ZM21 32H20V31H21V32ZM24 32H23V31H24V32ZM27 32H26V31H27V32ZM30 32H29V31H30V32ZM33 32H32V31H33V32ZM36 32H35V31H36V32ZM39 32H38V31H39V32ZM42 32H41V31H42V32ZM45 32H44V31H45V32ZM48 32H47V31H48V32ZM50 32V31H51V32H50ZM5 39H6V40H5V39ZM9 40H8V39H9V40ZM12 40H11V39H12V40ZM15 40H14V39H15V40ZM18 40H17V39H18V40ZM21 40H20V39H21V40ZM24 40H23V39H24V40ZM27 40H26V39H27V40ZM30 40H29V39H30V40ZM33 40H32V39H33V40ZM36 40H35V39H36V40ZM39 40H38V39H39V40ZM42 40H41V39H42V40ZM45 40H44V39H45V40ZM48 40H47V39H48V40ZM50 40V39H51V40H50Z" fill="#FFC54D"/>
<path fill-rule="evenodd" clip-rule="evenodd" d="M30 24.5C30 24.2239 30.2239 24 30.5 24H44.5C44.7761 24 45 24.2239 45 24.5V33H52V34H44.5C44.2239 34 44 33.7761 44 33.5V25H31V35.5C31 35.7761 30.7761 36 30.5 36H21.5C21.2239 36 21 35.7761 21 35.5V31H15V42.5C15 42.7761 14.7761 43 14.5 43H7V42H14V30.5C14 30.2239 14.2239 30 14.5 30H21.5C21.7761 30 22 30.2239 22 30.5V35H30V24.5Z" fill="#DC189C"/>
<path fill-rule="evenodd" clip-rule="evenodd" d="M29 23.5C29 23.2239 29.2239 23 29.5 23H43.5C43.7761 23 44 23.2239 44 23.5V32H51V33H43.5C43.2239 33 43 32.7761 43 32.5V24H30V34.5C30 34.7761 29.7761 35 29.5 35H20.5C20.2239 35 20 34.7761 20 34.5V30H14V41.5C14 41.7761 13.7761 42 13.5 42H6V41H13V29.5C13 29.2239 13.2239 29 13.5 29H20.5C20.7761 29 21 29.2239 21 29.5V34H29V23.5Z" fill="#1F204B"/>
</svg>
