<svg width="56" height="56" viewBox="0 0 56 56" fill="none" xmlns="http://www.w3.org/2000/svg">
<path fill-rule="evenodd" clip-rule="evenodd" d="M2.5 42.5C2.5 43.6046 3.39543 44.5 4.5 44.5H51.5C52.6046 44.5 53.5 43.6046 53.5 42.5V9.5C53.5 8.39543 52.6046 7.5 51.5 7.5H4.5C3.39543 7.5 2.5 8.39543 2.5 9.5V42.5Z" fill="white"/>
<path fill-rule="evenodd" clip-rule="evenodd" d="M2 9.5C2 8.11929 3.11929 7 4.5 7H51.5C52.8807 7 54 8.11929 54 9.5V42.5C54 43.8807 52.8807 45 51.5 45H4.5C3.11929 45 2 43.8807 2 42.5V9.5ZM4.5 8C3.67157 8 3 8.67157 3 9.5V42.5C3 43.3284 3.67157 44 4.5 44H51.5C52.3284 44 53 43.3284 53 42.5V9.5C53 8.67157 52.3284 8 51.5 8H4.5Z" fill="#1F204B"/>
<path fill-rule="evenodd" clip-rule="evenodd" d="M5 13H6V14H5V13ZM9 14H8V13H9V14ZM12 14H11V13H12V14ZM15 14H14V13H15V14ZM18 14H17V13H18V14ZM21 14H20V13H21V14ZM24 14H23V13H24V14ZM27 14H26V13H27V14ZM30 14H29V13H30V14ZM33 14H32V13H33V14ZM36 14H35V13H36V14ZM39 14H38V13H39V14ZM42 14H41V13H42V14ZM45 14H44V13H45V14ZM48 14H47V13H48V14ZM50 14V13H51V14H50ZM5 21H6V22H5V21ZM9 22H8V21H9V22ZM12 22H11V21H12V22ZM15 22H14V21H15V22ZM18 22H17V21H18V22ZM21 22H20V21H21V22ZM24 22H23V21H24V22ZM27 22H26V21H27V22ZM30 22H29V21H30V22ZM33 22H32V21H33V22ZM36 22H35V21H36V22ZM39 22H38V21H39V22ZM42 22H41V21H42V22ZM45 22H44V21H45V22ZM48 22H47V21H48V22ZM50 22V21H51V22H50ZM5 29H6V30H5V29ZM9 30H8V29H9V30ZM12 30H11V29H12V30ZM15 30H14V29H15V30ZM18 30H17V29H18V30ZM21 30H20V29H21V30ZM24 30H23V29H24V30ZM27 30H26V29H27V30ZM30 30H29V29H30V30ZM33 30H32V29H33V30ZM36 30H35V29H36V30ZM39 30H38V29H39V30ZM42 30H41V29H42V30ZM45 30H44V29H45V30ZM48 30H47V29H48V30ZM50 30V29H51V30H50ZM5 37H6V38H5V37ZM9 38H8V37H9V38ZM12 38H11V37H12V38ZM15 38H14V37H15V38ZM18 38H17V37H18V38ZM21 38H20V37H21V38ZM24 38H23V37H24V38ZM27 38H26V37H27V38ZM30 38H29V37H30V38ZM33 38H32V37H33V38ZM36 38H35V37H36V38ZM39 38H38V37H39V38ZM42 38H41V37H42V38ZM45 38H44V37H45V38ZM48 38H47V37H48V38ZM50 38V37H51V38H50Z" fill="#FFC54D"/>
<path fill-rule="evenodd" clip-rule="evenodd" d="M17.5 36.5H25.5V27.5H17.5V36.5Z" fill="white"/>
<path fill-rule="evenodd" clip-rule="evenodd" d="M17 27.5C17 27.2239 17.2239 27 17.5 27H25.5C25.7761 27 26 27.2239 26 27.5V36.5C26 36.7761 25.7761 37 25.5 37H17.5C17.2239 37 17 36.7761 17 36.5V27.5ZM18 28V36H25V28H18Z" fill="#1F204B"/>
<path fill-rule="evenodd" clip-rule="evenodd" d="M42.5 17.5H50.5V27.5H42.5V17.5Z" fill="white"/>
<path fill-rule="evenodd" clip-rule="evenodd" d="M42 27.5C42 27.7761 42.2239 28 42.5 28H50.5C50.7761 28 51 27.7761 51 27.5V17.5C51 17.2239 50.7761 17 50.5 17H42.5C42.2239 17 42 17.2239 42 17.5V27.5ZM43 27V18H50V27H43Z" fill="#1F204B"/>
<path fill-rule="evenodd" clip-rule="evenodd" d="M29.5 29.5H37.5V17.5H29.5V29.5Z" fill="white"/>
<path fill-rule="evenodd" clip-rule="evenodd" d="M29 17.5C29 17.2239 29.2239 17 29.5 17H37.5C37.7761 17 38 17.2239 38 17.5V29.5C38 29.7761 37.7761 30 37.5 30H29.5C29.2239 30 29 29.7761 29 29.5V17.5ZM30 18V29H37V18H30Z" fill="#1F204B"/>
<path fill-rule="evenodd" clip-rule="evenodd" d="M5.5 29.5H13.5V17.5H5.5V29.5Z" fill="white"/>
<path fill-rule="evenodd" clip-rule="evenodd" d="M5 17.5C5 17.2239 5.22386 17 5.5 17H13.5C13.7761 17 14 17.2239 14 17.5V29.5C14 29.7761 13.7761 30 13.5 30H5.5C5.22386 30 5 29.7761 5 29.5V17.5ZM6 18V29H13V18H6Z" fill="#1F204B"/>
<path fill-rule="evenodd" clip-rule="evenodd" d="M22 20.5L22 27.5C22 27.7761 21.7761 28 21.5 28C21.2239 28 21 27.7761 21 27.5L21 20.5C21 20.2239 21.2239 20 21.5 20C21.7761 20 22 20.2239 22 20.5Z" fill="#1F204B"/>
<path fill-rule="evenodd" clip-rule="evenodd" d="M47 34.5L47 27.5C47 27.2239 46.7761 27 46.5 27C46.2239 27 46 27.2239 46 27.5L46 34.5C46 34.7761 46.2239 35 46.5 35C46.7761 35 47 34.7761 47 34.5Z" fill="#1F204B"/>
<path fill-rule="evenodd" clip-rule="evenodd" d="M33.5 17.5C33.2239 17.5 33 17.2761 33 17L33 14C33 13.7239 33.2239 13.5 33.5 13.5C33.7761 13.5 34 13.7239 34 14L34 17C34 17.2761 33.7761 17.5 33.5 17.5Z" fill="#1F204B"/>
<path fill-rule="evenodd" clip-rule="evenodd" d="M9.5 17.5C9.22386 17.5 9 17.2761 9 17L9 14C9 13.7239 9.22386 13.5 9.5 13.5C9.77614 13.5 10 13.7239 10 14L10 17C10 17.2761 9.77614 17.5 9.5 17.5Z" fill="#1F204B"/>
<path fill-rule="evenodd" clip-rule="evenodd" d="M21.5 41.5C21.2239 41.5 21 41.2761 21 41L21 36.5C21 36.2239 21.2239 36 21.5 36C21.7761 36 22 36.2239 22 36.5L22 41C22 41.2761 21.7761 41.5 21.5 41.5Z" fill="#1F204B"/>
<path fill-rule="evenodd" clip-rule="evenodd" d="M46.5 13C46.2239 13 46 13.2239 46 13.5L46 17.5C46 17.7761 46.2239 18 46.5 18C46.7761 18 47 17.7761 47 17.5L47 13.5C47 13.2239 46.7761 13 46.5 13Z" fill="#1F204B"/>
<path fill-rule="evenodd" clip-rule="evenodd" d="M33.5 35C33.2239 35 33 34.7761 33 34.5L33 29.5C33 29.2239 33.2239 29 33.5 29C33.7761 29 34 29.2239 34 29.5L34 34.5C34 34.7761 33.7761 35 33.5 35Z" fill="#1F204B"/>
<path fill-rule="evenodd" clip-rule="evenodd" d="M9.5 35C9.22386 35 9 34.7761 9 34.5L9 30C9 29.7239 9.22386 29.5 9.5 29.5C9.77614 29.5 10 29.7239 10 30L10 34.5C10 34.7761 9.77614 35 9.5 35Z" fill="#1F204B"/>
<path fill-rule="evenodd" clip-rule="evenodd" d="M20 20.5C20 20.2239 20.2239 20 20.5 20L22.5 20C22.7761 20 23 20.2239 23 20.5C23 20.7761 22.7761 21 22.5 21L20.5 21C20.2239 21 20 20.7761 20 20.5Z" fill="#1F204B"/>
<path fill-rule="evenodd" clip-rule="evenodd" d="M45 34.5C45 34.7761 45.2239 35 45.5 35L47.5 35C47.7761 35 48 34.7761 48 34.5C48 34.2239 47.7761 34 47.5 34L45.5 34C45.2239 34 45 34.2239 45 34.5Z" fill="#1F204B"/>
<path fill-rule="evenodd" clip-rule="evenodd" d="M32 13.5C32 13.2239 32.2239 13 32.5 13L34.5 13C34.7761 13 35 13.2239 35 13.5C35 13.7761 34.7761 14 34.5 14L32.5 14C32.2239 14 32 13.7761 32 13.5Z" fill="#1F204B"/>
<path fill-rule="evenodd" clip-rule="evenodd" d="M8 13.5C8 13.2239 8.22386 13 8.5 13L10.5 13C10.7761 13 11 13.2239 11 13.5C11 13.7761 10.7761 14 10.5 14L8.5 14C8.22386 14 8 13.7761 8 13.5Z" fill="#1F204B"/>
<path fill-rule="evenodd" clip-rule="evenodd" d="M20 41C20 40.7239 20.2239 40.5 20.5 40.5L22.5 40.5C22.7761 40.5 23 40.7239 23 41C23 41.2761 22.7761 41.5 22.5 41.5L20.5 41.5C20.2239 41.5 20 41.2761 20 41Z" fill="#1F204B"/>
<path fill-rule="evenodd" clip-rule="evenodd" d="M45 13.5C45 13.7761 45.2239 14 45.5 14L47.5 14C47.7761 14 48 13.7761 48 13.5C48 13.2239 47.7761 13 47.5 13L45.5 13C45.2239 13 45 13.2239 45 13.5Z" fill="#1F204B"/>
<path fill-rule="evenodd" clip-rule="evenodd" d="M32 34.5C32 34.2239 32.2239 34 32.5 34L34.5 34C34.7761 34 35 34.2239 35 34.5C35 34.7761 34.7761 35 34.5 35L32.5 35C32.2239 35 32 34.7761 32 34.5Z" fill="#1F204B"/>
<path fill-rule="evenodd" clip-rule="evenodd" d="M8 34.5C8 34.2239 8.22386 34 8.5 34L10.5 34C10.7761 34 11 34.2239 11 34.5C11 34.7761 10.7761 35 10.5 35L8.5 35C8.22386 35 8 34.7761 8 34.5Z" fill="#1F204B"/>
<path fill-rule="evenodd" clip-rule="evenodd" d="M17.5 29.5C17.5 29.2239 17.7239 29 18 29L25 29C25.2761 29 25.5 29.2239 25.5 29.5C25.5 29.7761 25.2761 30 25 30L18 30C17.7239 30 17.5 29.7761 17.5 29.5Z" fill="#1F204B"/>
<path fill-rule="evenodd" clip-rule="evenodd" d="M42.5 25.5C42.5 25.7761 42.7239 26 43 26L50 26C50.2761 26 50.5 25.7761 50.5 25.5C50.5 25.2239 50.2761 25 50 25L43 25C42.7239 25 42.5 25.2239 42.5 25.5Z" fill="#1F204B"/>
<path fill-rule="evenodd" clip-rule="evenodd" d="M29.5 19.5C29.5 19.2239 29.7239 19 30 19L37 19C37.2761 19 37.5 19.2239 37.5 19.5C37.5 19.7761 37.2761 20 37 20L30 20C29.7239 20 29.5 19.7761 29.5 19.5Z" fill="#1F204B"/>
<path fill-rule="evenodd" clip-rule="evenodd" d="M5.5 27.5C5.5 27.2239 5.72386 27 6 27L13 27C13.2761 27 13.5 27.2239 13.5 27.5C13.5 27.7761 13.2761 28 13 28L6 28C5.72386 28 5.5 27.7761 5.5 27.5Z" fill="#1F204B"/>
<path d="M11.5 22C11.5 23.1046 10.6046 24 9.5 24C8.39543 24 7.5 23.1046 7.5 22C7.5 20.8954 8.39543 20 9.5 20C10.6046 20 11.5 20.8954 11.5 22Z" fill="#DC189C"/>
<path d="M23.5 33C23.5 34.1046 22.6046 35 21.5 35C20.3954 35 19.5 34.1046 19.5 33C19.5 31.8954 20.3954 31 21.5 31C22.6046 31 23.5 31.8954 23.5 33Z" fill="#DC189C"/>
<path d="M35.5 25C35.5 26.1046 34.6046 27 33.5 27C32.3954 27 31.5 26.1046 31.5 25C31.5 23.8954 32.3954 23 33.5 23C34.6046 23 35.5 23.8954 35.5 25Z" fill="#DC189C"/>
<path d="M48.5 22C48.5 23.1046 47.6046 24 46.5 24C45.3954 24 44.5 23.1046 44.5 22C44.5 20.8954 45.3954 20 46.5 20C47.6046 20 48.5 20.8954 48.5 22Z" fill="#DC189C"/>
</svg>
