<svg width="56" height="56" viewBox="0 0 56 56" fill="none" xmlns="http://www.w3.org/2000/svg">
<path fill-rule="evenodd" clip-rule="evenodd" d="M2.5 42.5C2.5 43.6046 3.39543 44.5 4.5 44.5H51.5C52.6046 44.5 53.5 43.6046 53.5 42.5V9.5C53.5 8.39543 52.6046 7.5 51.5 7.5H4.5C3.39543 7.5 2.5 8.39543 2.5 9.5V42.5Z" fill="white"/>
<path fill-rule="evenodd" clip-rule="evenodd" d="M2 9.5C2 8.11929 3.11929 7 4.5 7H51.5C52.8807 7 54 8.11929 54 9.5V42.5C54 43.8807 52.8807 45 51.5 45H4.5C3.11929 45 2 43.8807 2 42.5V9.5ZM4.5 8C3.67157 8 3 8.67157 3 9.5V42.5C3 43.3284 3.67157 44 4.5 44H51.5C52.3284 44 53 43.3284 53 42.5V9.5C53 8.67157 52.3284 8 51.5 8H4.5Z" fill="#1F204B"/>
<path fill-rule="evenodd" clip-rule="evenodd" d="M5 13H6V14H5V13ZM9 14H8V13H9V14ZM12 14H11V13H12V14ZM15 14H14V13H15V14ZM18 14H17V13H18V14ZM21 14H20V13H21V14ZM24 14H23V13H24V14ZM27 14H26V13H27V14ZM30 14H29V13H30V14ZM33 14H32V13H33V14ZM36 14H35V13H36V14ZM39 14H38V13H39V14ZM42 14H41V13H42V14ZM45 14H44V13H45V14ZM48 14H47V13H48V14ZM50 14V13H51V14H50ZM5 21H6V22H5V21ZM9 22H8V21H9V22ZM12 22H11V21H12V22ZM15 22H14V21H15V22ZM18 22H17V21H18V22ZM21 22H20V21H21V22ZM24 22H23V21H24V22ZM27 22H26V21H27V22ZM30 22H29V21H30V22ZM33 22H32V21H33V22ZM36 22H35V21H36V22ZM39 22H38V21H39V22ZM42 22H41V21H42V22ZM45 22H44V21H45V22ZM48 22H47V21H48V22ZM50 22V21H51V22H50ZM5 29H6V30H5V29ZM9 30H8V29H9V30ZM12 30H11V29H12V30ZM15 30H14V29H15V30ZM18 30H17V29H18V30ZM21 30H20V29H21V30ZM24 30H23V29H24V30ZM27 30H26V29H27V30ZM30 30H29V29H30V30ZM33 30H32V29H33V30ZM36 30H35V29H36V30ZM39 30H38V29H39V30ZM42 30H41V29H42V30ZM45 30H44V29H45V30ZM48 30H47V29H48V30ZM50 30V29H51V30H50ZM5 37H6V38H5V37ZM9 38H8V37H9V38ZM12 38H11V37H12V38ZM15 38H14V37H15V38ZM18 38H17V37H18V38ZM21 38H20V37H21V38ZM24 38H23V37H24V38ZM27 38H26V37H27V38ZM30 38H29V37H30V38ZM33 38H32V37H33V38ZM36 38H35V37H36V38ZM39 38H38V37H39V38ZM42 38H41V37H42V38ZM45 38H44V37H45V38ZM48 38H47V37H48V38ZM50 38V37H51V38H50Z" fill="#FFC54D"/>
<path fill-rule="evenodd" clip-rule="evenodd" d="M5.5 44.5H13.5V21.5C13.5 20.9477 13.0523 20.5 12.5 20.5H6.5C5.94772 20.5 5.5 20.9477 5.5 21.5V44.5Z" fill="#FFC54D"/>
<path fill-rule="evenodd" clip-rule="evenodd" d="M5 21.5C5 20.6716 5.67157 20 6.5 20H12.5C13.3284 20 14 20.6716 14 21.5V44.5C14 44.7761 13.7761 45 13.5 45H5.5C5.22386 45 5 44.7761 5 44.5V21.5ZM6.5 21C6.22386 21 6 21.2239 6 21.5V44H13V21.5C13 21.2239 12.7761 21 12.5 21H6.5Z" fill="#1F204B"/>
<path fill-rule="evenodd" clip-rule="evenodd" d="M17.5 44.5H25.5V28.5H17.5V44.5Z" fill="white"/>
<path fill-rule="evenodd" clip-rule="evenodd" d="M17 29.5C17 28.6716 17.6716 28 18.5 28H24.5C25.3284 28 26 28.6716 26 29.5V44.5C26 44.7761 25.7761 45 25.5 45H17.5C17.2239 45 17 44.7761 17 44.5V29.5ZM18.5 29C18.2239 29 18 29.2239 18 29.5V44H25V29.5C25 29.2239 24.7761 29 24.5 29H18.5Z" fill="#1F204B"/>
<path fill-rule="evenodd" clip-rule="evenodd" d="M19 44H26V30H19V44Z" fill="#53CDE4"/>
<path fill-rule="evenodd" clip-rule="evenodd" d="M41.5 44.5H49.5V27.5H41.5V44.5Z" fill="#FFC54D"/>
<path fill-rule="evenodd" clip-rule="evenodd" d="M41 28.5C41 27.6716 41.6716 27 42.5 27H48.5C49.3284 27 50 27.6716 50 28.5V44.5C50 44.7761 49.7761 45 49.5 45H41.5C41.2239 45 41 44.7761 41 44.5V28.5ZM42.5 28C42.2239 28 42 28.2239 42 28.5V44H49V28.5C49 28.2239 48.7761 28 48.5 28H42.5Z" fill="#1F204B"/>
<path fill-rule="evenodd" clip-rule="evenodd" d="M17 29.5C17 28.6716 17.6716 28 18.5 28H24.5C25.3284 28 26 28.6716 26 29.5V44.5C26 44.7761 25.7761 45 25.5 45H17.5C17.2239 45 17 44.7761 17 44.5V29.5ZM18.5 29C18.2239 29 18 29.2239 18 29.5V44H25V29.5C25 29.2239 24.7761 29 24.5 29H18.5Z" fill="#1F204B"/>
<path fill-rule="evenodd" clip-rule="evenodd" d="M29.5 44.5H37.5V35.5H29.5V44.5Z" fill="#DC189C"/>
<path fill-rule="evenodd" clip-rule="evenodd" d="M29 36.5C29 35.6716 29.6716 35 30.5 35H36.5C37.3284 35 38 35.6716 38 36.5V44.5C38 44.7761 37.7761 45 37.5 45H29.5C29.2239 45 29 44.7761 29 44.5V36.5ZM30.5 36C30.2239 36 30 36.2239 30 36.5V44H37V36.5C37 36.2239 36.7761 36 36.5 36H30.5Z" fill="#1F204B"/>
<path fill-rule="evenodd" clip-rule="evenodd" d="M7 46.5C7 46.2239 7.22386 46 7.5 46H11.5C11.7761 46 12 46.2239 12 46.5V48.5C12 48.7761 11.7761 49 11.5 49H7.5C7.22386 49 7 48.7761 7 48.5V46.5ZM8 47V48H11V47H8Z" fill="#1F204B"/>
<path fill-rule="evenodd" clip-rule="evenodd" d="M19.5 48.5H23.5V46.5H19.5V48.5Z" fill="#53CDE4"/>
<path fill-rule="evenodd" clip-rule="evenodd" d="M19 46.5C19 46.2239 19.2239 46 19.5 46H23.5C23.7761 46 24 46.2239 24 46.5V48.5C24 48.7761 23.7761 49 23.5 49H19.5C19.2239 49 19 48.7761 19 48.5V46.5ZM20 47V48H23V47H20Z" fill="#1F204B"/>
<path fill-rule="evenodd" clip-rule="evenodd" d="M31.5 48.5H35.5V46.5H31.5V48.5Z" fill="#DC189C"/>
<path fill-rule="evenodd" clip-rule="evenodd" d="M31 46.5C31 46.2239 31.2239 46 31.5 46H35.5C35.7761 46 36 46.2239 36 46.5V48.5C36 48.7761 35.7761 49 35.5 49H31.5C31.2239 49 31 48.7761 31 48.5V46.5ZM32 47V48H35V47H32Z" fill="#1F204B"/>
<path fill-rule="evenodd" clip-rule="evenodd" d="M43 46.5C43 46.2239 43.2239 46 43.5 46H47.5C47.7761 46 48 46.2239 48 46.5V48.5C48 48.7761 47.7761 49 47.5 49H43.5C43.2239 49 43 48.7761 43 48.5V46.5ZM44 47V48H47V47H44Z" fill="#1F204B"/>
</svg>
